<?xml version="1.0" encoding="utf-8"?>
<!-- Generator: Adobe Illustrator 25.4.1, SVG Export Plug-In . SVG Version: 6.00 Build 0)  -->
<svg version="1.1" id="Layer_1" xmlns="http://www.w3.org/2000/svg" xmlns:xlink="http://www.w3.org/1999/xlink" x="0px" y="0px"
	 viewBox="0 0 792 612" style="enable-background:new 0 0 792 612;" xml:space="preserve">
<style type="text/css">
	.st0{fill:none;}
	.st1{fill:#FFFFFF;stroke:#2E3192;stroke-miterlimit:10;}
	.st2{fill:#FFFFFF;stroke:#000000;stroke-miterlimit:10;}
	.st3{font-family:'StencilStd';}
	.st4{font-size:33.278px;}
</style>
<g>
	<g>
		<rect x="657.07" y="356.36" class="st0" width="185.35" height="2.03"/>
		<path class="st1" d="M264.81,259.12l61.04-100.64c1.53-0.66,2.19-1.31,1.75-3.06l24.51-40.6c0.22-0.22,1.31-1.53,1.75-1.75
			c2.63-1.96,3.72-5.46,8.31-7.2c0.88-0.44,3.5-1.09,3.72-1.09c2.19-0.22,6.78-0.87,9.63,0.44c1.09,0.66,1.09,2.4,2.41,3.06
			c0.66,0.65,1.75-1.75,2.19,0c0.22,0.44,0.66,2.62,0.66,3.06c1.09,0.22,2.19-0.22,3.06-0.65c1.75,1.53,3.06,2.84,4.16,4.8l3.06,4.8
			c1.09,1.96,0.44,2.18-1.31,4.15c0.44-0.22,2.63-0.22,3.06,0c2.84,1.31-1.09,3.49,1.75,5.89l3.06,2.4c2.19,2.18,3.28,6.77,5.91,8.3
			l10.07,16.81c1.31,1.97-0.22,3.49,0,5.89l1.97-1.09c0,0,1.75,1.53,2.41,2.4c1.97,2.62,2.41,4.8,4.16,7.64l1.75,2.4l1.09,2.4
			c0.66,1.31-1.53,0.87-1.75,1.75c0,0.22,0.22,2.18,0,2.4c-0.44,0.87-3.94,2.62-4.16,3.71c0,0.22-0.66,3.06-0.66,3.49
			c-0.22,1.09-1.75,1.09-2.41,1.75c0.66,0.87,1.53,3.93,2.41,4.15c0.44,0.22,3.72-0.22,3.72,1.31v5.89c1.53-0.44,0.44-5.68,2.41-4.8
			v6.11h1.09l3.06-3.06c2.19,0.87,1.75-2.4,2.84-3.06c0.66,4.15,3.72-3.71,6.56,1.31c1.09,1.75,6.34,10.04,7.22,11.79
			c0.22,0.22,0.66,1.09,0.66,1.31l29.32,48.25c0.44,0.65,1.53,3.27,1.75,3.71c0.44,0.87,0,1.75-1.09,1.75h-27.57
			c-1.31,0-1.97-1.96-0.66-2.4c0.44-0.22,2.19,0.44,2.41-0.66c-1.53-1.96-3.5-2.4-5.25-0.65c-0.87-5.68,4.38-6.33,5.25-3.49
			c0.87-0.44,1.09-1.75,1.31-2.4c0.22-1.31-1.97-0.65-2.41-1.75c-0.22-1.97,0.87-6.11,0.44-7.86h-1.09c-0.22,0-1.53,0.65-1.75,0.65
			c-0.44,0-1.31-1.75-1.31-1.75c-0.88-1.53-1.31-4.58-0.44-6.55c0.66-1.75,7.44-3.27,4.6-6.11c-0.22,0-1.97-0.87-2.41-1.09
			c-0.44-0.22-1.97-0.22-1.97,0v3.06c0,1.31-5.03-1.96-3.94-4.15c0-0.22,1.09-0.65,1.31-0.65c1.09-0.87,4.38-8.3,1.53-7.86v1.75
			c-0.44-0.87-1.75-3.49-3.5-2.84c-0.66,2.4,3.06,3.93,0,5.89c-0.66-0.44-1.75-7.2-3.5-3.06c-0.22,0.44-0.66,2.62-0.66,3.06
			c-0.44-3.49-1.31-6.55-1.75-10.04c-0.22-1.31-0.66-4.15-0.66-4.15h-1.09c0.22,0.22-0.22,1.96-0.66,2.18
			c-0.22,0.22-1.31,0.22-1.75,0c-1.97-0.22-1.97-4.58-1.75-5.89c-1.97-0.87-1.09,6.33-3.06,4.8c-0.22-0.22-1.97-2.18-2.41-2.4
			c-0.44-0.22-3.5-0.22-4.81,0c-4.59,0.44,1.53,7.86-2.84,8.95c-1.31,0.44-5.25-0.87-6.56-0.65c2.41,1.31,0.87,3.49-1.31,3.06
			c-0.22,0-1.53-0.65-1.75-0.65c-0.22,0-0.66,0.44-0.66,0.65c2.19,1.53,0.66,2.4,1.31,4.8c0,0.22,1.09,0.87,1.09,1.09
			c0.22,0.44,0.22,1.31,0,1.31l-3.5,0.65h-52.07c-0.88,0-0.66-1.75-0.66-1.96s1.09-1.96,1.31-2.4l14.88-24.89l0.66-0.65
			c7,0.22,14.44,0.22,21.44-0.66c1.97-0.87-2.84-7.42-3.5-8.95l-4.81-7.64c-1.53-2.62-0.44-6.11-1.31-8.95
			c-0.66-2.62-2.41-1.75-4.16-2.4c-0.22,0-0.44-1.31-0.44-1.31s-1.09-0.44-1.31-0.44c-1.97-1.53-4.38-10.26-7.22-6.11
			c-8.97,14.63-17.5,29.47-26.26,44.1c-0.22,0.22-0.66,1.09-0.66,1.31l-20.79,35.15c0,0.22-1.09,1.09-1.31,1.31
			c-0.22,0-1.75,0.87-1.75,1.09c-0.22,0.22,0,2.18,0,2.4c-0.22,1.53-3.94,5.46-4.81,7.64c-0.22,0.22-0.44,1.31-0.44,1.31h-0.66
			c-0.66-2.62,1.31-2.84,0.66-6.55v-1.31c0.66-0.22,0.87,1.09,1.75,0.66c0.22-1.09-0.22-4.37-2.41-3.49
			c-0.66,2.18,0.22,6.11-1.75,7.64v7.86c0,0.87-2.63,2.4-3.72,2.4h-12.47c-1.97-2.4-2.41,0-4.16-2.4c-0.44-0.44-1.97-2.62-3.06-1.75
			c0,0,0.66,4.15-1.09,4.15h-19.91c-0.22,0-1.09-0.44-1.09-0.65C262.19,263.05,264.38,259.77,264.81,259.12z M273.79,262.83
			c0,0.44,0.66,0.44,0.66,0C274.44,262.39,273.79,262.39,273.79,262.83z M279.69,258.03c0,0.22,0.44,1.53,0.66,1.75
			c2.84-1.75-0.66-4.15,1.75-6.55h0.66c2.19,1.09-2.19,2.62,5.47,4.15h1.75c-0.22,0.65-0.22,1.53,0.66,1.75
			c1.97-0.87,0.22-3.71,4.16-4.58c0.44-0.22,3.5-0.22,4.16,0c1.97-1.09-1.31-2.84-0.66-4.37h0.66c1.75,1.96,0.66,6.99,2.41,6.11
			c2.19-1.31,2.41-5.68,2.41-7.2l0.44-0.66c0,0.22,0.44,1.53,0.66,1.75c0,0,0.44,0,0.66,0c3.94-2.84,2.19-5.89,3.06-6.55
			c1.09-0.66,3.94,3.06,4.59,0.65c-0.87-6.33,3.94-13.32,4.81-19.65c1.53-0.87,1.75,3.27,2.41,2.4c1.53-1.31,3.06-3.71,0.66-4.8
			c3.06-2.18,1.31-5.68,2.41-8.29c0.88-2.62,2.84-1.75,1.75-4.8c-0.87-2.18-1.75-0.22-1.09-2.4c0.22-0.87,1.75-2.62,1.09-3.49
			c-0.87-1.53-3.06-0.65-3.5-1.96c-0.22-0.87-0.22-4.15-2.41-2.84c-1.75,0.65-0.88,4.8-2.41,4.15v-0.65
			c-1.31-2.62-5.47,4.15-5.91,4.8c-2.19,2.18-4.81-0.87-5.47,1.75c-0.22,1.09,0.87,2.18,1.09,3.06c0.87,2.84-3.06,2.18-4.16,3.49
			c-0.22,0.22-0.44,2.18-0.44,2.4c0,0.22-1.31,1.09-1.31,1.31c-1.31,3.06,0.88,4.8-0.66,7.64c-0.44,1.31-2.63,0.44-3.5,0.65
			c-0.88,0.22-1.31,2.4-1.31,2.4c0,0.22-1.75,1.53-1.75,1.75c-0.44,0.87,0.66,2.4-0.44,3.06c-0.22,0-2.19,0.22-2.41,0.44l-2.41,2.4
			c-1.09,0.87-5.25,1.75-5.47,3.06c-0.88,3.27-2.41,6.55-1.75,10.04v1.31c0,0.65-1.31,4.8-1.31,5.24V258.03z M300.7,259.12v3.06
			l0.66-3.06H300.7z M304.2,259.12c0,0.44,0.66,0.44,0.66,0C304.85,258.9,304.2,258.9,304.2,259.12z M304.2,261.52v0.65h0.66
			L304.2,261.52z M306.61,255.63l0.66-0.65c-0.22-0.44-0.88-0.65-1.09-0.44v0.44C306.17,255.19,306.39,255.63,306.61,255.63z
			 M309.67,198.43v0.44h0.66v-0.44H309.67z M315.14,244.27l-1.31,2.4h0.66c0.44-0.44,1.09-1.75,1.09-1.75L315.14,244.27z
			 M315.14,223.97c0-0.22,0.22-0.65,0.44-0.65c0.22,1.09,0.22,2.18-0.44,3.06V223.97z M318.64,243.18c0.88-5.46-3.72-6.55-2.41-1.96
			C316.45,241.65,317.55,244.06,318.64,243.18z M316.89,183.37v0.66l0.66-0.66H316.89z M317.55,234.45v-0.44
			C317.33,234.01,317.33,234.45,317.55,234.45z M331.77,197.77c2.41,0,1.53-3.71,1.75-4.8c0.44-3.49,8.1-3.27,6.13-5.24
			c-1.75-0.66-1.97,1.53-3.72,0c-1.31-1.31-4.81-4.58-4.81-4.8v-3.71c1.31,0.87,3.94,6.11,5.25,4.8v2.4c0,0.22,1.09,0.22,1.31,0
			l1.31-1.09c-0.22-1.53,0.87-5.46,0.66-6.55h-1.31c-5.03-2.4,1.31-3.71,1.75-4.8c0.66-1.09-1.09-3.93,0-4.15
			c4.59-1.75,2.41,6.99,4.81,5.89v-4.8c0-0.44-0.44-2.62-0.44-3.06c-0.44-2.62,2.19-2.4,1.09-5.24c0-0.22-1.09-1.09-1.09-1.31
			c-0.87-0.87-1.53-3.49-2.41-4.15c-1.97,1.31-5.25,6.11-6.13,7.86c0,0.22-0.44,1.53-0.44,1.75c-0.22,0.44-1.09,0.87-1.31,0.65
			l-2.41-2.4c-3.28,2.4,2.19,8.73-3.06,10.7v5.24l-0.44,0.65c-0.88-0.65-1.75-3.06-3.06-2.4c1.09,1.96-0.87,3.93-2.41,4.8l2.41,4.8
			c0.88,1.09,2.41,0.44,3.06-0.65l1.09-2.4c0.66-0.44,3.06,0.44,3.06,1.31v4.8c-3.06-4.58-2.19,3.93-1.31,5.24
			C331.33,197.34,331.77,197.77,331.77,197.77z M323.45,196.03c0.44-0.22,0.88-0.87,0.66-1.31h-1.31v0.65
			C322.8,195.59,323.23,196.03,323.45,196.03z M323.45,176.82c0.66,0.22,1.53,0.22,1.75-0.44l-1.09-1.31
			c-0.22,0-0.66,0.44-0.66,0.66V176.82z M326.52,185.33c0,0.44,0,1.53-0.66,1.75c-0.22,0-0.66-0.44-0.66-0.65
			C324.77,185.77,325.86,184.89,326.52,185.33z M326.52,191.88v6.99c0.87-0.22,1.09-2.4,1.09-2.84v-4.8L326.52,191.88z
			 M331.77,202.58v0.65h0.66L331.77,202.58z M332.42,175.73c0-0.22,0.44-0.66,0.66-0.66v1.75h-0.66V175.73z M338.33,191.88
			c-0.88-0.22-3.06,0-3.5,1.09C335.49,194.5,338.99,192.97,338.33,191.88z M337.67,144.29c0.22,0,0.22-0.44,0-0.44V144.29z
			 M342.05,187.08v0.66h0.44v-0.66H342.05z M344.46,182.27c-0.66-1.31-2.41-0.44-1.97,0.66
			C343.14,184.02,344.89,183.15,344.46,182.27z M342.49,141.67v0.66l0.66-0.66H342.49z M344.46,145.82v1.31h0.44v-1.31H344.46z
			 M347.3,163.72v0.65h0.66v-0.65H347.3z M352.12,137.52v-1.09h-0.66v0.44C351.46,137.09,351.9,137.52,352.12,137.52z
			 M351.46,171.58h1.09v-3.71c1.31,0.66,4.81-0.87,3.72-2.4c-2.41,0.44-4.38-1.53-4.81,2.4V171.58z M353.87,177.47
			c0,0.44,0.66,0.44,0.66,0C354.52,177.04,353.87,177.04,353.87,177.47z M358.68,172.01v0.65c1.75-4.15,5.47-2.84,2.41-7.64
			c-0.22-0.22-0.66-1.75-0.66-1.75c-0.87,0.65-5.03,6.55-4.16,7.64C356.71,171.14,358.24,172.01,358.68,172.01z M356.93,162.63
			c0.44,0.22,0.88-0.22,1.09-0.65l1.31-5.46c0,0,0-0.87,0-1.09c-1.53-0.87-2.19,4.58-2.41,5.89V162.63z M359.34,166.78
			c0.66-0.44,1.53,0.65,1.09,1.09c-0.44,0.22-0.87-0.22-1.09-0.44V166.78z M370.71,127.48c-0.66-0.65-1.31,1.31-1.75,1.75
			c-0.44-0.22-1.75-1.53-1.97-1.75v-0.65c0-0.22,1.31-1.09,1.31-1.31c0.44-0.65,0.22-1.96,1.09-2.4c0.88,0.87,1.75,2.18,3.06,1.96
			l5.91-1.31c1.97-2.84-3.28-6.33-4.81-7.64c-1.53-0.44-3.5,0.65-5.25,0.44v-1.09c0-0.22,0.66-1.09,0.66-1.31
			c-0.22-0.22-1.53-1.53-1.97-1.75c-1.31,0.87-0.44,3.93-2.84,3.06v1.09c0.88,4.37-5.47,5.02-4.16,8.51
			c0.44,1.53,3.28-0.44,3.5-0.66c0.87,0.22,0.87,1.09,0.66,1.75c-2.41,6.99,0.44,2.18,4.81,4.8
			C371.15,132.28,371.15,129.66,370.71,127.48z M366.99,153.02c1.97,1.31,2.19-2.18,1.97-3.06c-0.22-0.44-5.47-4.8-4.81-1.75
			c1.09,6.99,2.19,1.31,2.84,3.71V153.02z M364.15,143.42v0.66h0.44L364.15,143.42z M370.06,137.52c0,0.22,0.66,0.22,0.66,0
			c1.31-2.18,1.31-5.46,1.09-7.64c0,0.22-0.44,1.97-0.66,2.18c0,0.44-1.09,2.62-1.09,3.06V137.52z M371.15,114.82
			c0,0.44,0.66,0.44,0.66,0C371.81,114.38,371.15,114.38,371.15,114.82z M373.56,112.42c1.31-0.44,0.44-2.18,0-2.84
			c0,0-1.53,1.09-1.09,1.75L373.56,112.42z M373.12,119.62c0.22,0,0.44,0,0.44,0l1.31,3.06c-0.22,0.22-1.09,0.22-1.31,0
			c-0.22-0.44-1.09-1.96-1.09-2.4C372.46,120.06,372.9,119.62,373.12,119.62z M375.53,128.57c0.22,0,1.09-0.87,1.09-1.09
			c-0.66-1.75-4.38-1.75-3.5,0C373.34,127.7,375.09,128.57,375.53,128.57z M373.56,213.93c0.44,0,0.44-0.66,0-0.66
			C373.34,213.27,373.34,213.93,373.56,213.93z M373.56,133.37c1.31-0.22,1.97-1.31,0.66-1.75c-0.22,0-0.66,0.44-0.66,0.44V133.37z
			 M375.53,204.32c-1.53,0.66-1.75,1.53-1.31,3.06C375.31,210.87,379.68,202.36,375.53,204.32z M379.68,117.22h0.44
			c3.28-2.84-4.81-8.3-3.5-1.75c0.44,1.53,1.53-0.87,2.41,0.66C379.03,116.35,379.68,117.22,379.68,117.22z M377.93,132.06
			c-1.09,0.44-1.31,2.62-1.31,3.06C376.62,137.09,381.43,134.03,377.93,132.06z M379.03,149.97c0.87,0.87,3.06-0.65,2.41-1.75h-1.31
			c-0.22-1.53,1.09-5.68,1.97-7.2l-0.66-0.44c-0.22,0.44-2.63,3.71-3.5,1.75c-2.19,3.06-1.09,3.06,0.44,5.89
			C378.37,148.44,378.81,149.75,379.03,149.97z M377.93,174.42c0,0,0.22-0.44,0.44-0.44v1.75h-0.44V174.42z M377.93,213.93v1.75
			c0.66-0.22,0.66-1.31,0.44-1.75H377.93z M379.03,203.23v1.09h0.66v-1.09H379.03z M380.78,214.37v0.65h0.66v-0.65H380.78z
			 M382.09,125.3c0.22,0,0.22-0.44,0-0.44C381.87,124.86,381.87,125.3,382.09,125.3z M383.84,142.98c1.31,1.31,3.5-8.08-0.66-6.11
			v2.4h1.31c0,0.22,0,1.75,0,1.75C384.5,141.23,384.06,142.76,383.84,142.98z M383.84,126.39c0.22,0,0.22-0.44,0-0.44
			S383.62,126.39,383.84,126.39z M394.56,165.47c-0.88-3.27,6.13-5.68,6.56-6.99c0-0.22-0.66-1.75-0.66-1.96
			c0,0,0.66-1.53,0.66-1.75v-3.49c0-0.44,1.75-3.27,1.75-3.71c0.22-0.66-0.22-2.18-0.44-2.18h-0.66l-1.75,5.24
			c0,0.22-0.44,0.66-0.66,0.66c-0.66-3.49-1.31-1.53-4.16-2.4c-1.97-0.65-0.87-2.18-3.06-0.65c-0.44-0.65-4.81-5.46-5.91-2.84
			c0,0.66-0.44,4.37-0.66,5.24c-0.22,1.09-1.53,2.62,0.66,3.06c0.22,0,0.66-0.44,0.66-0.65c4.16-6.33,2.84-1.09,4.6-0.66
			c0.22,0,2.84,0.66,3.06,0.66c0.22,0,0.66,0.44,0.66,0.65l-1.31,2.4v0.44h2.41v3.06c-0.44,2.18-1.09,0.65-2.84,1.31
			c-2.19,0.44-1.53,2.84-0.66,4.15C393.25,165.47,393.69,165.68,394.56,165.47z M386.9,134.47v0.66h0.44v-0.66H386.9z M386.9,141.67
			v0.66h0.44v-0.66H386.9z M387.34,147.13c0.87,0.22,0.87,1.09,0.66,1.75h-0.66V147.13z M388.65,183.37h0.44
			c0.44-0.22,1.75-1.31,1.97-1.75h-0.66C389.97,181.84,388.87,183.15,388.65,183.37z M393.91,175.07c1.75,2.62,2.41-1.53,0.66-3.49
			c-1.09-1.31-3.94-4.15-4.16-4.15h-0.66c-0.66,5.46,1.09,3.27,3.06,5.24L393.91,175.07z M389.75,143.42c0.22,1.09,1.97,1.09,2.41,0
			l-2.41-2.4V143.42z M392.81,135.78c0,0.22,0.44,0.65,0.66,0.65l0.44-0.65l-1.09-1.31V135.78z M392.81,218.08v0.65h0.66v-0.65
			H392.81z M396.97,143.42h-1.31c0,0-0.87-1.53-1.75-1.09c-0.44,1.53,1.09,3.06,1.75,4.15
			C397.19,148.66,398.94,144.07,396.97,143.42z M395.22,218.73c0.44,0.22,1.53-0.65,1.09-1.31c-0.44-0.22-0.88,0.22-1.09,0.65
			V218.73z M398.72,175.73c0,0.44,0.66,0.44,0.66,0C399.38,175.29,398.72,175.29,398.72,175.73z M402.88,223.97
			c1.31-0.65-0.44-8.08-1.09-8.95c-1.53,0.66-0.22,2.18,0,3.06s0.66,4.58,0.66,5.24L402.88,223.97z M401.78,190.57v0.66h0.66v-0.66
			H401.78z M408.35,170.92c-0.66-2.18,0-4.37-3.06-3.49v-1.31c0.66-2.18-0.44-4.37,0-5.24c0-0.22,0.66-1.09,0.66-1.31
			c0-1.53-4.59-0.87-3.06,4.15v1.31c0,0.22-0.66,1.09-0.44,1.75c0,0.22,1.09,1.53,1.09,1.75c0.22,1.09-0.66,3.93,1.09,4.8
			C407.91,174.42,409.22,174.2,408.35,170.92z M407.03,194.72c0.22-0.44,0.22-3.49,0-4.15c-0.22-0.65-2.19-1.09-1.75-2.4
			c0-0.22,0.66-0.87,0.66-1.09s-1.75-1.53-1.75-1.75c-0.87-2.4,0.44-5.02,0.44-7.2c0-1.53-1.09-1.53-1.75-0.65
			c-0.22,0.87-0.44,3.93-0.44,4.8c0,0.44,1.09,4.37,1.09,4.8c0,0.22-0.66,3.93,0.66,4.8c0.22,0.22,1.53,0.22,1.75,0.44
			c0.22,0.22,0,1.75,0,1.96C406.16,194.28,406.82,194.72,407.03,194.72z M402.88,151.93v1.09c0.44-0.22,0.88-0.87,0.66-1.09H402.88z
			 M402.88,210.22c0.88-0.44,1.53-1.75,1.75-2.4c-0.44,0-1.53,0-1.75,0.66V210.22z M403.53,215.24c0.22,0,0.22-0.44,0-0.44
			S403.31,215.24,403.53,215.24z M405.28,181.62v1.31l0.66-0.66L405.28,181.62z M405.28,219.17c1.09,0.65,3.06-1.31,0.66-2.84
			c-0.22,0-0.66,0.22-0.66,0.44V219.17z M408.35,179.22c3.5,3.06,4.16-2.62-1.31-1.75c-0.22,0-0.44,0.44-0.44,0.65L408.35,179.22z
			 M409,189.48c0.44,0.44,1.75-1.31,1.75-1.31c0-1.31-1.75,0-1.75,0C408.78,188.39,408.78,189.26,409,189.48z M410.1,227.03v0.65
			h-0.66L410.1,227.03z M410.75,173.32c0.44,0,0.44-0.65,0-0.65C410.32,172.67,410.32,173.32,410.75,173.32z M430.45,263.92
			c0-0.22,0.22-1.53,0-1.75c-0.44-0.44-1.97-0.87-2.41-0.65l-15.53-26.2c-1.09-1.96-1.97-2.84,0-4.15c0.44-0.44,2.84,1.75,2.84,1.09
			v-2.18h1.75v2.18c0,0.22,0.66,0.22,0.87,0c2.63-1.75,1.31-1.96,2.41-5.24c0-0.87,0.88-2.4,1.09-2.4h0.66
			c-0.44,0.87-0.88,3.06-0.66,4.15c0.44,1.75,2.63-0.65,3.5,0c1.53,0.87,3.28,3.49,2.41,5.46c-0.22,0.22-1.75,2.18-1.75,2.4
			c0,0,1.09,1.53,1.31,1.75c3.5,5.89,2.84-0.87,5.91,0.44c0.22,0,0.66,0.65,0.66,0.65v4.8c0.22,0.22,1.53,1.31,1.75,1.75
			c0.22,0.44-0.44,3.93,0,5.46c0.66,3.49-2.19,1.75-3.06,3.49c-0.44,1.09,2.19,1.53,2.41,2.4v3.06c0.22,2.4,1.97,4.8-2.41,4.8
			c0,0-0.87-0.44-1.09-0.65C430.88,264.36,430.45,263.92,430.45,263.92z M412.5,172.23c0.22,0,0.22-0.22,0-0.22
			C412.29,172.01,412.29,172.23,412.5,172.23z M412.5,196.68v1.75h0.66v-1.75H412.5z M415.57,179.22c0.22-0.87-1.75-1.96-2.41-1.75
			c-0.22,0.65,0.22,1.09,0.44,1.31C414.04,178.78,414.91,179.44,415.57,179.22z M415.57,172.67c0,0,1.31-1.75,0-1.75
			c-0.44,0.22-0.88,0.87-0.66,1.09C414.91,172.23,415.35,172.67,415.57,172.67z M416.01,187.08c0,0.22,0.44,0.66,0.66,0.66
			c1.31-0.66,0.44-2.4-0.66-1.97V187.08z M417.32,237.07c0.44-0.22,0.44-0.87,0-1.09C416.88,235.76,416.88,237.29,417.32,237.07z
			 M420.82,188.82c2.19-1.09,0.87,6.77-0.44,1.09C420.16,189.48,420.38,189.04,420.82,188.82z M421.47,207.38v0.44h0.66
			L421.47,207.38z M423.88,220.48c-1.09-2.18,2.19-1.96,3.06-1.75c0.88,0.22,1.31,2.62,2.19,3.49c2.19,1.53,3.06,1.31,1.97,4.15
			c-0.22,0-0.66-0.44-0.66-0.66C429.13,223.53,424.98,223.1,423.88,220.48z M424.54,205.42h1.09v-0.44h-0.66
			C424.76,204.98,424.54,205.42,424.54,205.42z M429.79,194.72h-1.75v-0.44C428.7,192.97,430.45,193.84,429.79,194.72z
			 M428.04,237.07c0.22-0.44,1.31-1.53,1.75-1.75c0,0.44-0.44,5.02-1.75,2.4C428.04,237.51,428.04,237.07,428.04,237.07z
			 M429.79,190.57h-0.66c0,0-0.22-0.87-0.44-1.09C426.51,183.8,431.54,183.37,429.79,190.57z M432.85,218.95
			c-0.22,0-0.22-0.44,0-0.44C433.07,218.51,433.07,218.95,432.85,218.95z M435.92,255.63l0.44,0.66h-0.44V255.63z M436.35,259.12
			c0-0.22,0.66-0.22,0.66,0C437.01,259.56,436.35,259.56,436.35,259.12z M437.01,262.17c0-0.22,0.44-0.65,0.66-0.65
			c1.09,0.65,0.44,2.4-0.66,1.96V262.17z M439.42,238.82h0.66v2.4c-0.22,0-0.66-1.53-0.66-1.75V238.82z M441.82,242.53
			c1.53-0.87,3.06,4.15,0.66,3.49c-0.44,0-1.31-0.87-1.31-1.09C441.17,244.49,441.61,242.96,441.82,242.53z M447.07,250.17h0.66
			c0.22,0.66,0.22,1.75-0.66,1.96V250.17z M463.27,254.53c1.09-4.58-5.25-6.33-4.81-8.95c0,0-2.41,1.96-2.84,2.18
			c1.53,2.18,3.28,3.93,4.81,6.11C461.08,254.75,461.95,254.53,463.27,254.53z M456.05,243.18v0.44h0.66v-0.44H456.05z"/>
		<path class="st1" d="M534.25,137.85V96.51c0-0.46-9.66,0-10.58,0.11c-1.15,0.17-1.61,1.66-1.38,1.88
			c-0.92,0.17-2.3-0.69-2.99-0.74c-2.3-0.34-3.45,0,0-0.63c0,0,0.46-0.11,0.46-0.17c-2.3-0.86-12.42-1.26-11.27,0.29h-2.53
			c0.23,0.11,0.92,0.34,0.69,0.51c-1.38,0.06-3.68-0.23-3.68-0.63c0-0.23,2.99-0.4,3.68-0.63c-0.92,0-4.14-0.17-5.06-0.17
			c-2.07-0.06-3.22,0.51-3.68,0.46c-2.07-0.17-2.3-0.4-4.37-0.29c-0.23,0-0.69,0.11-0.69,0.11v8.45c1.38,0.51-0.69,1.31-0.69,1.88
			c0,1.31,0.69,11.93,0.69,13.25v8.28c1.61,0.57-0.69,1.43,0.69,2.17c0,0.06,1.15,0.4,1.15,0.46c0,0.17-1.38,0.57-1.84,0.63v6.11
			H534.25z M529.88,103.36c-1.84,0.11-3.91-0.46-1.84-0.63c0.46,0.06,1.61,0.34,1.84,0.46V103.36z M522.98,102.28h-0.69
			c-3.22-1.37,1.84-1.14,1.38-0.34C523.67,101.99,523.21,102.22,522.98,102.28z M522.29,103.99l-0.69-0.17c0,0,1.38-0.4,2.07-0.29
			v0.11L522.29,103.99z M517.92,133.91c-0.92-0.4-2.07-0.34-3.68-0.63c-2.99-0.4-3.91,0.8-6.44,0c-1.84-0.57-3.68,0.23-3.68-0.29
			v-1.71c0-0.34-3.45-0.57-1.15-0.91c2.07-0.4,2.07,0.74,2.3,0.91c0.23-0.51-0.92-2-0.46-2.51c0.23,0.06,0.92,0.17,1.15,0.17
			c2.76,0-2.3-0.8-1.15-1.26c0.23-0.11,1.38-0.29,1.84-0.29c0,0.06,0.23,0.63,1.15,0.74c0.23,0,0.69-0.11,0.69-0.11
			c1.38-1.71-3.68-0.69-4.37-1.14c-0.69-0.4,0.23-0.23,1.15-0.46c1.38-0.23,2.3-0.86,3.91-1.08c0.92-0.11,2.3,0.17,2.99,0.17
			c1.61,0,0.69-0.97-5.52-0.8c-0.23-0.17,0-0.46,0.69-0.63v-2.17c0-0.23-0.23-0.57-1.38-0.46c-2.99,0.23-6.44-0.17-5.52-1.08
			c0.23-0.17,2.53-0.8,2.99-0.97c0.46-0.11,2.76-0.69,2.53-0.74c-0.23-0.11-1.61-0.4-1.15-0.63c0.46-0.46,1.38-0.4,0.46-0.97
			c-0.92-0.74-4.37-0.69-1.15-1.83c0.69,0.17,1.15,1.71,3.22,1.37c1.15-0.86-2.53-0.69-1.38-1.54c2.3,0.4,3.45,0.97,2.53,1.71h0.69
			c7.13-0.91,1.61,0.97,1.84,1.08c1.15,0.17,1.84-0.46,3.22-0.29c0.46,0,2.53,0.34,2.99,0.46c1.61,0.23,0.23,0.86,2.07,1.08
			c1.15,0.17,1.38-0.51,2.99-0.34v2.06c0,0.4-2.99-0.23-2.53,0.8c1.15,1.48-0.46,0.57-1.84,1.2c-0.92,0.51-1.38,1.54-1.15,2.06
			c-0.92,0.11-1.15-0.29-2.07-0.17c0,0.51,0.23,1.6,0.69,2.17c0.46,0.63,2.3-0.46,2.53-0.46c1.15-0.06,3.45-0.11,4.37,0.17v1.43
			c-0.23,0.46-1.15,0.46-0.69,0.91c0.69,0.46,3.22,1.43,1.38,1.88l-2.53,0.46c-0.69,0.23,0,0.8-1.15,0.91
			c-9.66,1.2,0.92,0.91,0,1.26L517.92,133.91z M519.76,116.78c-0.23,0-0.46,0-0.46,0c-0.92-0.23-3.68-0.63-2.53-1.08h0.46
			c4.6,1.14,3.68-0.34,5.75,0c0.69,0.4-0.23,0.57-1.38,0.74L519.76,116.78z M522.29,125.97c-0.46,0-0.46-0.17,0-0.17
			S522.75,125.97,522.29,125.97z M521.14,129.86v0.34h0.46v-0.17C521.6,129.97,521.37,129.86,521.14,129.86z M521.6,133.8h-1.15V133
			h0.69c0.23,0.06,0.46,0.29,0.46,0.29V133.8z M521.14,104.62v0.46c-1.15,0.17-1.61-0.34-1.38-0.46c-1.38-0.17-1.61,0.69-2.53,0.46
			v-1.43c0,0,0.46-0.11,0.69-0.11c0.92-0.11,1.61,0.23,1.84,0.29L521.14,104.62z M520.45,103.42c-0.23,0-0.23-0.11,0-0.11
			C520.68,103.3,520.68,103.42,520.45,103.42z M520.45,115.24c0,0.06-0.69,0.06-0.69,0C519.76,115.12,520.45,115.12,520.45,115.24z
			 M519.76,127.4h-0.46c-0.23,0.11,0,0.63,1.15,0.46v-0.17C520.45,127.63,519.76,127.4,519.76,127.4z M519.76,100.28
			c-0.23,0-0.23-0.11,0-0.11C519.99,100.16,519.99,100.28,519.76,100.28z M519.76,120.04h-0.46c-0.23,0.11,0,0.29,0.46,0.34V120.04z
			 M517.23,109.13c-0.23,0-0.46-0.11-0.46-0.17v-0.91c2.07-0.17,2.3,0.4,1.84,0.8C518.61,108.84,517.46,109.13,517.23,109.13z
			 M516.77,113.81c-0.69-0.29,1.15-0.46,1.84-0.17C518.38,113.87,517.23,113.87,516.77,113.81z M516.77,119.41
			c0.23,0,0.23-0.11,0-0.11C516.31,119.29,516.31,119.41,516.77,119.41z M511.7,102.56c-1.61-0.23-3.68-1.31-0.69-1.54
			c1.15,0.11,1.15,0.69,1.15,0.8c0.92,0.17,1.15-0.46,2.07-0.51h2.53c-0.23,0.17-1.15,0.63-2.07,0.8L511.7,102.56z M514.7,109.3
			c0-0.06-0.46-0.29-0.46-0.34c-0.23-0.34-0.23-1.31,0-1.37l1.15-0.34l0.69,0.17c-0.46,0.06-1.38,0.34-1.38,0.46V109.3z
			 M516.08,117.07v0.17l-0.69-0.17H516.08z M516.08,122.83c-0.23-0.34-2.07-0.63-3.22-0.74c-0.69,0.74,1.38,0.11-0.69,1.08v0.17
			c1.61-0.06,2.76,0.23,3.91,0.11V122.83z M509.86,105.87c2.3,0.06,4.37-0.17,5.52-0.63c0.69,0.57-0.69,1.08-2.53,1.26
			C510.56,106.67,510.09,106.73,509.86,105.87z M515.39,98.22c-3.22,0.23-1.15-0.8,0-0.63V98.22z M515.39,120.83
			c0-0.06-0.69-0.29-0.69-0.34v-0.57c-2.07-0.29-2.53,1.66,0.69,1.37V120.83z M509.18,115.07h-0.69c-0.46-0.23-0.23-0.69,1.38-0.63
			c-1.15-0.29-0.69-1.03-0.69-1.26c0.92,0.06,4.14-0.29,5.06-0.17c1.61,0.23-0.69,0.51,0,0.8c1.61,0.8,1.38,1.77-2.07,0.63
			C511.93,114.55,509.63,114.95,509.18,115.07z M514.7,110.84c0,0.06-0.92,0.06-1.15,0c-2.07-0.51,0.92-0.86,1.15-0.46V110.84z
			 M513.55,99.53c-0.23,0-0.23-0.11,0-0.11C513.77,99.42,513.77,99.53,513.55,99.53z M512.16,107.7v0.17h-0.46v-0.17H512.16z
			 M512.16,118.32c-0.23-0.06-0.92,0.06-1.15,0.17c0.23,0.11,0.92,0.23,1.15,0.17V118.32z M511.7,110.56c-0.23,0-0.23-0.06,0-0.06
			C511.93,110.5,511.93,110.56,511.7,110.56z M511.7,111.64c0,0.11-0.69,0.11-0.69,0C511.02,111.53,511.7,111.53,511.7,111.64z
			 M509.86,129.4c0.23,0,0.23-0.17,0-0.17C509.4,129.23,509.4,129.4,509.86,129.4z M508.48,107.42v0.17h-0.69L508.48,107.42z
			 M507.33,130.2c0.23,0.06,0.23-0.51,0-0.46C506.88,129.8,506.88,130.14,507.33,130.2z M498.36,108.04
			c0.23-0.4,1.15-0.69,2.07-0.97v-2c0-0.34,0.23-1.77,2.53-1.88c0.46-0.06,2.07-0.11,2.3,0.17c0.69,0.51-1.15,0.51,0,1.26
			c0.23,0.11,1.84,0.57,2.07,0.74c0.23,0.57-0.92,2-0.69,2.51h-0.69c-1.84-0.34-3.68-0.74-2.53-1.37c-1.84-0.23-1.84,1.14-2.53,1.37
			C500.66,108.16,499.28,108.1,498.36,108.04z M507.33,131.46c-1.61,0,0,0.46,0,0.46V131.46z M502.96,111.3
			c-0.46-0.34,1.61-2,3.68-1.26c1.38,0.51,0,0.51-0.69,1.14c0,0,0,0.4,0,0.46C505.26,112.38,503.19,111.7,502.96,111.3z
			 M505.95,101.65c-0.46,0-0.46-0.17,0-0.17C506.41,101.48,506.41,101.65,505.95,101.65z M504.8,98.85l-2.53-0.8l0.69-0.17
			c0.46-0.11,2.76,0.57,2.3,0.8C505.26,98.74,505.04,98.85,504.8,98.85z M504.8,123l-0.69,0.17V123H504.8z M504.11,101.19
			c-0.46,0-0.46-0.17,0-0.17S504.57,101.19,504.11,101.19z M502.96,117.07h-0.69v-0.29c0.23,0,0.69,0.11,0.69,0.17V117.07z
			 M501.58,98.96v0.8h-0.69c-0.69-0.23-0.69-0.51-0.46-0.8H501.58z M499.74,119.29l0.69-1.14c0.23,0.29,0.69,0.69,0.46,0.97
			C500.66,119.24,500.2,119.29,499.74,119.29z M498.36,102.56c0.69-0.06,1.84-0.06,2.07,0.17
			C499.74,103.02,498.59,102.9,498.36,102.56z M500.43,121.63l-0.69,0.11v-0.11H500.43z M498.36,118.95
			c-0.69-0.06-0.69-0.29-0.46-0.46c0.46-0.11,1.61,0.17,1.15,0.29C499.05,118.84,498.59,118.95,498.36,118.95z M497.21,100.68
			c-0.46-0.29,0.69-0.57,1.84-0.46v0.17C498.82,100.56,498.36,100.91,497.21,100.68z M499.05,104.9v0.34
			c-0.69,0.11-1.61-0.17-1.15-0.34H499.05z M499.05,117.58v0.11h-0.69v-0.11H499.05z M497.21,106.62c-0.92,0.11-1.61-0.23-1.84-0.29
			c-0.69-0.23,2.53-0.74,2.53,0.17C497.9,106.5,497.44,106.62,497.21,106.62z M495.83,121.29c-0.23,0-0.23-0.17,0-0.17
			C496.29,121.12,496.29,121.29,495.83,121.29z M494.68,122.78c-0.23,0-0.23-0.11,0-0.11S494.91,122.78,494.68,122.78z
			 M494.68,102.56v0.17l-0.69-0.17H494.68z M493.99,130.03c-0.46-0.06-0.46-0.23,0-0.29C494.45,129.69,494.45,130.09,493.99,130.03z
			"/>
		<path class="st1" d="M19.01,375.64c-0.22,0-0.22-0.44,0-0.44S19.23,375.64,19.01,375.64z M27.98,453.58
			c-1.53-2.18-3.5-4.15-4.81-6.55c-0.87-2.18,0.44-4.58,0-5.46c-1.09-2.62-0.87-3.71-3.06-5.46c-0.22-0.22-1.09-1.09-1.09-1.09
			v-18.56c1.09-0.87,0.22-3.28,0-4.15v-15.5c0-0.22,0.44-0.66,0.66-0.66c3.5-0.44,5.03,1.75,2.84,2.4c-1.09,0.44-4.38,0.22-1.09,2.4
			c1.09,0.87,5.47-7.86,4.16,3.71c-0.22,1.31,0.66,2.18-1.09,2.84l-0.66-0.66v-4.15c0-1.96-4.16,0.44-1.31,7.2
			c0,0.22,0.44,0.65,0.66,0.65c0.66-0.44,1.09-1.31,1.31-1.75c0,1.75,0.44,3.49,1.75,4.8c0.44,0.22,3.28-4.15,2.84-4.8
			c0-0.22-1.09-1.75-1.09-1.96c-0.22-0.44-0.22-3.49,0-4.15h0.66c0.22,4.8,3.94,4.58,7,1.96c0.22,0,0.66,1.53,0.66,1.75
			c0,0.22,0.66,2.18,0.66,2.4c0.66,1.09,5.47,4.15,5.47,1.09c0-1.53-1.75-3.71-1.31-5.24c1.97-1.09,3.5,2.18,3.06,3.49
			c2.19-0.44,0.88-2.4,2.41-3.06c1.53,1.09,1.97,3.71,3.5,4.8c0-1.96,0.88-3.93,2.41-5.24v-6.11c-0.44-0.22-1.53-1.97-1.75-2.4
			c-0.22-0.22-0.44-2.62-0.66-2.84l-2.41-3.06c-0.44-0.66-1.09-3.06-1.09-3.49c0-0.22,0.44-1.75,0.44-1.96
			c1.75-6.77-0.66-4.15-2.84-6.99c-0.22-0.22-0.66-1.75-0.66-1.96c-0.22-0.44-1.09-2.18-1.09-2.4c0,0-1.31-0.87-1.31-1.09
			c0-0.22,0.66-1.09,0.66-1.09c0.22-0.87,0.66-4.15,0.66-4.8c0.22-0.44,2.19,2.4,2.19,2.4c0,0.22-0.44,1.53-0.44,1.75
			c0,0.22,0.88,1.09,1.09,1.09c3.06-1.53-3.72-11.57,1.31-10.04c0.88-1.09-2.41-1.96-3.06-3.71c-0.22,0-0.66-1.53-0.66-1.75
			l-2.41,0.66c-0.22,0-0.22,3.28,0,4.8c0,0.66,0.88,0.87,0.66,1.75h-0.66c-2.19-2.18-0.44-2.62-1.75-5.89
			c0-0.22-1.09-1.09-1.09-1.31c-1.09-2.4,0.66-1.09,0.44-3.49c0-0.44-0.66-3.71-1.09-4.8c-1.09-2.84-4.6,1.53-4.81,1.75
			c-1.09,2.4,0,4.15-0.66,6.55c0,0.22-1.09,1.75-1.09,1.75c-0.44,1.09,0.88,2.18,0.66,3.06c0,0.22-0.66,2.18-0.66,2.4
			c-0.44,1.96,2.84,1.31,1.09,3.49c-0.22,0.66-12.03,3.93-12.47,3.71c-0.22-1.97,4.38-4.58,1.75-6.55c-0.22-0.22-1.53-0.22-1.75,0
			v-63.96c0,0,0.44-0.44,0.66-0.44c0.22-0.22,2.19-0.66,2.41-0.66h50.76c3.06,1.09,2.84-0.22,5.47,0c0.66,0,4.59,1.09,5.25,1.09
			l1.31-0.44c0.22-0.22,6.13-0.66,8.31-0.66h21c0.44,0.22,6.78,1.31,7.66,1.09l0.66-0.44c0.44-0.22,2.19-0.66,2.41-0.66h32.16
			l1.31,1.09v37.77l-1.31,1.09h-50.76c-14,0-46.6,0.66-46.6,0.66l-0.66,0.44c-0.22,0.22-0.66,27.72-0.66,39.51v77.5l-1.09,0.66
			H47.02l-2.41-1.75c0,0-0.66,1.75-1.09,1.75H29.07c-0.22,0-1.53-0.87-1.75-1.31C26.45,454.67,28.64,454.24,27.98,453.58z
			 M19.01,388.53h0.66c0.22,0.87,0.22,3.06-0.66,4.15V388.53z M20.76,448.12c-0.22,0.87-1.09,0.87-1.75,0.66
			c0-0.22,0.44-0.66,0.66-0.66H20.76z M23.82,381.98c-0.22-3.49-0.66-6.33,1.09-8.95c2.41-0.44,4.16-0.44,3.72,2.4
			c-1.31-0.44-4.59,0.87-3.72,2.84c0,0.22,1.31,1.75,1.31,1.96c0.22,0.66,0.22,3.93,0,4.58c-2.63,0.87-3.06,1.31-4.81-1.09
			c-0.87,0.44-1.31,3.06-1.75,2.4c0-0.44,0.22-1.97,0.44-2.4C21.42,379.36,21.2,382.41,23.82,381.98z M19.66,454.67
			c0-0.44,0.44-0.44,0.44,0S19.66,455.11,19.66,454.67z M23.17,387.21v4.8c0,1.53-2.19,0.44-2.41-0.66
			C20.54,390.27,21.85,386.56,23.17,387.21z M25.57,387.21c0.22,0.66,0.22,1.75-0.66,1.96c-0.22,0-0.44-0.44-0.44-0.65
			C24.04,387.87,24.92,386.78,25.57,387.21z M24.92,454.67c0.88,0.22,0.88,1.31,0.66,1.75c-0.44,0.22-1.09-0.22-1.09-0.44
			C24.26,455.54,24.48,454.89,24.92,454.67z M26.23,346.83c0.44,0,0.87-0.22,1.09-0.65h-0.66
			C26.67,346.17,26.23,346.61,26.23,346.83z M26.67,341.37c0.44-0.44,2.41-2.4,3.72-1.75c0.22-0.66,0.66-3.06,0.66-3.71v-0.44
			c-0.66-0.66-2.41,4.37-4.38,0.44V341.37z M27.98,450.52c0.44,0.87,1.31,1.53,2.41,1.09c0.66-0.65-1.53-2.84-2.41-2.4V450.52z
			 M28.64,333.08c0.66,0.22,0.88-0.44,1.75-0.66h2.41c2.19-0.44-0.66-3.49-3.72-0.66C28.85,331.98,28.64,332.86,28.64,333.08z
			 M29.07,322.38c1.09-0.65,2.41-3.93,0.66-4.37c-0.22,0-0.66,0.44-0.66,0.66V322.38z M33.45,354.47c-0.44,0-0.44-0.66,0-0.66
			C33.67,353.81,33.67,354.47,33.45,354.47z M33.89,363.42v2.4h-0.44v-0.65C33.45,364.95,33.67,363.64,33.89,363.42z M35.2,353.38
			l0.44-0.66l0.66,0.66l-0.66,0.44L35.2,353.38z M35.64,314.52v1.75h0.66v-1.75H35.64z M38.04,333.51c0,0.44,0.87,0.87,1.31,0.66
			v-5.9c-0.44-0.22-1.31,0.22-1.31,0.66V333.51z M42.42,418.87c0.22-0.22,1.09-1.96,1.09-2.4c-0.44-2.62-4.16-2.62-3.06,1.31
			C40.45,417.78,41.76,419.31,42.42,418.87z M41.76,378.05c-0.22,0-0.22-0.44,0-0.44C41.98,377.61,41.98,378.05,41.76,378.05z
			 M42.86,330.67c-0.22,0.22-0.22,0.87,0,1.09C44.61,334.17,45.92,329.58,42.86,330.67z M44.61,320.41h0.66v-1.75
			c-0.44-0.22-1.09,0.22-1.09,0.65C44.17,319.54,44.61,320.2,44.61,320.41z M44.17,420.62c4.81,1.31,1.53-8.29,0-0.44V420.62z
			 M45.92,344.86c0,0.22,0.44,0.66,0.66,0.66c0.44-1.09-0.87-3.06-1.97-3.49v0.44L45.92,344.86z M45.92,435.03
			c0,0,0.66-2.84-0.66-3.06c-0.44,0.65-0.66,1.75-0.66,2.4C44.83,434.81,45.48,435.24,45.92,435.03z M45.92,328.27
			c0.44,0,0.44-0.65,0-0.65C45.48,327.62,45.48,328.27,45.92,328.27z M45.92,441.79c0.22,0,0.22-0.44,0-0.44
			S45.7,441.79,45.92,441.79z M47.67,438.08c0-1.31-2.41-0.65-1.75,0.44C46.58,439.61,47.67,439.39,47.67,438.08z M45.92,423.02
			v0.65h0.66v-0.65H45.92z M46.58,316.27c0,0.44,0.44,0.44,0.44,0C47.02,315.83,46.58,315.83,46.58,316.27z M46.58,355.78
			c0.22,0.22,0.66,0.66,1.09,0.44v-0.44H46.58z M48.98,322.81c0,0.22,0.22,0.66,0.44,0.66c1.97-2.62,1.75-7.86,1.97-10.04
			c0-0.22-0.44-1.09-0.66-1.31c-1.53-1.31-1.53,4.8-1.75,5.46c0,0.22-1.31,1.53-1.31,1.75c0,0.22,1.31,2.18,1.31,2.4V322.81z
			 M48.33,399.22h0.66l-0.66,0.66V399.22z M50.73,440.26v-4.58h1.75v4.15c0,0.44,0.87,0.66,1.09,0.44c0.22-0.44,0.66-2.84,0.66-3.49
			c0,0,0-0.44,0-0.66c0-0.65-0.66-3.93-0.66-4.8c-1.31,2.4-6.56,2.18-4.59,7.2C49.2,438.95,50.3,440.26,50.73,440.26z M48.98,415.38
			h0.44v-1.75c-0.22,0-0.44,0.22-0.44,0.44V415.38z M53.58,396.82h0.66c0.44-1.75,0-3.06-1.09-4.15h-0.66
			c-0.22,0.66,0.44,1.09,0.66,1.75C53.36,394.86,53.58,396.38,53.58,396.82z M55.55,392.67c0.44,0,0.44-0.65,0-0.65
			C55.11,392.02,55.11,392.67,55.55,392.67z M59.05,312.12c0,0.44,0.66,0.44,0.66,0C59.71,311.68,59.05,311.68,59.05,312.12z
			 M62.11,306.66c0.44-0.87-1.31-1.31-1.75-1.09v0.66C60.58,306.88,61.24,306.88,62.11,306.66z M62.55,303.17h1.31
			c0.22-0.66,0.22-1.53-0.66-1.75c-0.22,0-0.66,0.44-0.66,0.66V303.17z M69.77,319.32v-3.05h1.31c6.13,1.53,0-2.84,2.41-4.15
			c0.66-0.44,1.53,0.87,2.41,0.65c0.88-1.53,3.28-10.92,2.41-11.35c-1.75-0.87-1.97,3.06-3.06,3.49c-3.28,1.09-2.19-2.84-4.16,1.75
			c-1.31,2.84-2.63,2.18-3.06,3.06c-0.44,1.09-0.88,2.4-0.66,3.71c0,0.66,0.66,3.71,0.66,4.15
			C68.02,317.58,68.46,320.63,69.77,319.32z M73.49,302.08c0,0.22,0.44,0.22,0.44,0C73.93,301.64,73.49,301.64,73.49,302.08z
			 M75.9,309.28c-0.22,0-0.22-0.44,0-0.44S76.12,309.28,75.9,309.28z M78.74,396.82v-32.75h71.33c0.22,0,1.53,1.09,1.75,1.75
			c1.09,3.06-3.28,4.8,0,7.2v22.7l-1.31,1.09H78.74z M81.15,330.02l2.41-6.55c0-0.22,0.66-2.84,0.66-3.06
			c0.44-1.31,1.53-0.22,1.75,0.66c1.31-0.44,1.53-2.4,1.31-3.49c1.53-0.66,5.25,4.58,4.16-2.4h-0.66c-2.19,1.09-0.44-0.87-2.41-1.31
			h-2.41c-0.44-0.22-2.19-1.31-2.41-1.75c-3.5,0.22-3.94,7.64-2.41,9.61c0.22,0.22,1.31,0.87,1.31,1.09
			c0.44,1.75-1.75,1.96-1.75,3.71C80.71,326.96,80.93,329.36,81.15,330.02z M83.56,317.58c0-0.44,0.66-0.44,0.66,0
			C84.21,317.79,83.56,317.79,83.56,317.58z M91.43,307.31c0.44-0.22,0.44-1.53,0-1.75C90.99,305.35,90.99,307.53,91.43,307.31z
			 M107.62,313.86c0,0.22,0.22,1.75,0.44,1.75c0.44,0,1.75-0.87,1.75-1.09v-0.66l-1.09-0.44c-0.22-0.22-0.66-2.84-0.66-3.06
			c-0.22-0.44-0.66-0.87-1.09-0.65c-0.22,0.87,0.44,1.09,0.66,1.75V313.86z M126,315.17c1.75-0.87-0.44-2.84-1.09-1.31L126,315.17z
			 M128.41,318.67c0.22,0.44,0.88,0.87,1.31,0.65c0.22-0.65-0.22-2.4-1.31-1.75V318.67z M132.13,314.52
			c-1.09,0.44-1.75,1.31-1.31,2.4C131.69,319.1,134.54,315.17,132.13,314.52z M132.13,321.07l0.44,0.66v-0.66H132.13z"/>
		<path class="st1" d="M177.2,367.57c-5.03,3.93-2.84-5.9-3.06-6.55c0-0.22-0.44-0.87-0.44-1.09c-1.53-4.8-0.87-11.35-0.66-15.5
			c1.75-1.96,0.66-6.55,0-8.51v-18.99c0-1.31,1.31-1.75,2.41-1.31c1.31-1.96,1.97-3.06,1.75-5.24c-0.22-1.09-0.66-3.06-0.66-3.06
			h-0.44v3.71c-0.22,0.87-2.19,0.87-2.41,0c-0.44-2.84,0.22-3.93,1.09-6.11c0.87-2.4-3.06-2.84-1.75-5.24
			c0-0.22,0.87-0.66,1.09-0.66h4.81c0.22,0,1.31,0.44,1.31,0.66v1.75c0,0.22,0.66,1.75,1.09,2.4c0.22,0.22,1.31,1.53,1.31,1.75
			c0.22,0.87,0.22,3.93,0,4.8h0.44c1.97-1.53,3.5-8.08,4.16-10.7c2.41,1.53,0.88,1.53,0,3.49c-0.44,1.53,0,3.71-1.09,5.46
			c-1.75,2.84-1.75,6.77-0.66,10.04c0.44,1.31,1.75,0.87,1.75,2.4c0,0.22-0.44,1.09-0.44,1.31c-0.88,3.06,2.41,8.73,5.25,4.15
			c1.97,2.4-1.09,1.75,2.41,2.84c0.22,0,0.66,0.44,0.66,0.66c-1.53,1.09-1.09,1.31-1.75,3.06c-3.5,6.99,1.75,2.62,1.75,5.24
			c0,0.22-0.66,1.75-0.66,1.75c-0.22,0.87-0.44,4.15-0.44,4.8c-0.66-0.87-0.66-2.84-1.97-3.49c-0.88,8.95-4.6-3.49-4.16-6.55
			c-0.66-0.44-1.53,1.09-2.41,1.09c-1.31,0-1.31-4.37-1.09-4.8c0,0,1.09-1.53,1.09-1.75c0.66-2.62,0-5.46-1.75-7.64
			c-0.66-0.22-1.31,0.44-1.75,0.65c-0.22-2.4,0.87-4.8,0.66-7.2c-1.31,0.44-1.53,4.8-3.72,2.84c0,2.18-2.63,4.15-1.75,6.11
			c0.66-0.87,2.63-2.4,3.06,0c0,0.22-0.66,1.53-0.66,1.75c0,0.22,0.66,1.53,0.66,1.75c0,0.44,0,1.31-0.66,1.31h-4.16l-0.66,0.44
			c-0.22,0.22,0.66,2.18,1.31,3.06c0.44,1.09,5.47-1.31,4.16,1.75l-1.75,2.4v6.55c0,1.96,5.47-2.4,6.56,1.75
			c0.44,2.62,2.19,7.42,1.75,10.26c-0.66,0.44-1.75-1.31-1.75-1.31c-4.38,3.49,2.19,3.93-2.41,5.46c-0.22,0-0.66,0.44-0.66,0.66
			c4.38,2.18,0.44,4.15,0,5.89l-1.31,7.64c0,0-1.53-7.42-1.75-8.29h-0.44c0.22,2.84-0.22,5.89-1.31,8.29h-0.66
			c0,0-0.44-0.87-0.44-1.09C175.45,370.84,177.63,369.1,177.2,367.57z M173.04,457.73v-77.5c0-0.44,3.94-3.49,4.16-3.71
			c-0.44,2.18,0,3.06,1.75,3.71c-0.22,0-0.44,0.87-0.44,1.09c-0.87,4.37-1.53,6.77,3.5,7.86c0.22,0,2.84-0.22,3.06,0
			c1.09,0.44,4.16,3.28,3.5,5.24c2.63-0.87,2.84,1.31,3.06,3.06v5.24c1.97,1.09-1.09,3.71-0.66,5.46c3.06,0.87,3.5-2.84,6.56-0.65
			c0.22,0,0.44,1.31,0.66,1.31s1.53-0.22,1.75,0c0.66,0.44,0.44,3.27,1.75,3.49c1.09,0.22,2.41,0.44,3.06-0.66
			c0.44-1.09-1.75-1.31-1.31-2.84c0.44-1.31,1.97,0,3.06-2.4c0.22-0.66,1.31-2.84,1.09-3.71c-0.88-0.44-5.69,5.46-5.91,7.2
			c-0.22-0.44-0.22-1.96,0-2.4c0-0.22,1.31-1.53,1.31-1.75v-3.06c0-0.22,1.09-0.87,1.09-1.09c1.31-2.18,1.75-6.55,0.66-8.95
			c0-0.22-1.09-0.65-1.31-0.65c-2.41-1.75-3.5-6.33-1.75-8.95c0.66-0.66,1.97,1.53,3.06,1.31c-0.88-5.46,5.03-8.51,1.09-13.1
			c-1.97-2.4-2.84,2.18-4.16,1.09c-1.31-1.96-2.41-5.24-1.75-7.86c0.22-0.44,0.88-0.22,0.66-1.09h-2.41
			c0.44-3.71-1.97-5.46-3.72-8.29c-0.44-0.66,2.19-6.99,3.72-7.2v-4.15c0,0,0.22-0.65,0.44-0.65c1.31-0.66,0.87,1.75,1.97,2.4
			c0-0.44,1.31-1.53,1.75-1.75c1.31-0.65,2.41,4.8,2.84,5.9c1.97-1.53,2.41-1.53,4.38,0c0.87-3.93,0.66-3.93-1.31-7.2
			c-0.22-0.22,0.66-1.53,0.66-1.75c0.44-3.05-1.75-11.79-1.31-13.1c0.87-1.96,3.28-3.93,3.72-5.89v-3.71
			c0.44-3.06,1.53-6.11,1.09-9.39c0.22,0.22,1.09,0.44,1.31,0.44c1.75,0.66,1.53-3.06,2.84-3.49c1.97-0.44,3.06,0,4.16-1.75
			c-0.87-1.53-2.19-3.71,0-4.8c0,0,1.75,1.09,1.31,1.75c0.87,0.87,3.28-4.58,5.91-0.66c0.66,1.09,3.72,8.73,1.75,8.95
			c-0.87-0.44-0.66-1.75-1.75-2.4c-0.66,0.22-0.66,4.58-1.75,3.71c-1.09-1.31-1.75-2.18-4.16-1.75c-3.28,2.62-0.88,5.89-1.31,9.39
			c0.22,0,1.75,0.44,1.97,0.66c0.22,0,0.44,0.65,0.44,0.65v5.24h1.31v-5.24c-0.22-1.75-1.97-6.99,2.41-5.89
			c0,0.44,0.44,2.84,0.44,3.49c0,0.22,0.44,0.66,0.66,0.66c-0.22-1.96-0.22-4.15,0.66-6.11c0.44,1.31,1.75,1.75,3.06,1.31
			c0.88,3.28-2.84,4.58-0.66,7.64c0,0.22,0.44,0.66,0.66,0.66c4.6,3.06-4.38,1.31,1.09,4.8c0.88,0.66,1.09,1.31,1.31,2.4l2.84-3.05
			c1.75-1.75-2.84-2.4-2.84-4.15c0-0.44-0.44-5.46-0.66-7.2v-1.09c4.38,0.87,1.31-3.27,1.09-4.8v-3.49c-0.22-1.96-1.53-2.4-1.09-4.8
			c2.41,0.22,5.03-0.22,7.22-0.66h23.19l4.81,0.66c-0.44,2.18,4.81,2.4,1.09,4.8h-0.44l-1.31-3.06c0,0.66-0.44,3.06-0.44,3.49
			c0,0.22-0.44,1.09-0.66,1.31c-1.31,1.75,0.44,3.93-0.66,6.55c-0.44,0.87-2.19,4.37-2.41,5.24c-0.88,6.33,1.53,9.82,5.91,13.75
			c0.88-0.65,2.19,4.15,3.72,3.06c-0.87-6.11,2.84-5.89,1.75-3.06c1.09,0.66,1.31-1.75,2.41-1.09c1.09,1.31-2.63,3.05-3.06,5.24
			c-0.22,0.66,0.66,3.06-1.09,3.06h-26.26c-6.34-0.87-6.56,0.66-12.69,0c-0.22,0-0.87-0.66-1.09-0.66
			c-1.97-0.44-0.44,0.44-2.41,0.66h-4.81c-0.22,0-2.19-1.09-2.41-1.09c-2.19-1.09-3.5-0.87-4.81-3.06
			c-0.87-1.53,3.5-10.26-0.44-10.26c-1.53,0,0,2.4,0,2.4c0,2.18-1.31,5.02-1.31,7.2c0,0.22,1.53,4.37,0,4.37h-4.81v36.24
			c-1.31,0.87,0.22,4.37,0.44,4.8v37.55l0.87,2.4h0.44c-1.09-2.62,6.56-1.09,7.88-1.75h96.71l0.66,0.44
			c0.22,0.22,0.66,10.92,0.66,15.5v22.27c0,0-0.88,1.75-1.31,1.75h-17.29c-1.09-1.75-1.97-1.53-3.5,0h-40.7
			c-3.28,0-3.94-1.09-4.16-4.15h-0.66c-0.66,0.66-0.66,1.96-0.66,2.84h-0.44c-0.44-0.22-1.75-1.31-1.75-1.75
			c0.22,1.96-0.44,2.84-2.41,2.4c-2.19-0.65,0.88-3.93,0.44-4.8h-0.44c0,0-1.31,1.96-1.97,3.06c-0.22,0.66-0.22,1.31-1.09,1.75
			h-5.47c-0.22,0-3.72,0.66-4.16,0.66c-0.87,0.22-1.53-0.87-2.41-0.66c-0.22,0-0.88,0.66-1.09,0.66c-2.41,0.44-4.16-0.22-6.56-0.66
			c-2.84-0.44,0-3.71-2.41-5.46h-0.66c-0.87,1.75-1.53,3.71-1.09,5.46c-1.75,0.44-2.19-0.87-4.16,0c-0.44,0.22-1.97,0.66-1.97,0.66
			h-19.69c-2.19,0-1.31-3.06,0-3.71c-1.53-2.84-2.84,4.8-5.91,2.4c-0.44-0.44-0.44-5.02-2.41-3.49c0,0-0.66,0.87-0.66,1.09
			c-0.22,0.44-0.44,2.62-0.44,3.06c-2.19,0.66-2.41-1.96-4.38,0.66H173.04z M175.45,319.98v0.44h0.66v-0.44H175.45z M176.1,363.42
			h0.44c0-0.66,0.44-3.06,0.66-3.49c0-0.22,0.66-1.09,0.66-1.31c0.22-0.66-1.09-2.4-1.75-1.75V363.42z M185.51,425.42
			c1.75,0.87,2.19-4.37,2.41-4.8c1.09-0.44,2.41,0.66,3.06,1.31v-4.15c-5.91-1.75-5.91-2.62-2.41-7.86
			c0.22-0.22,0.66-0.87,0.66-1.09c0.22-3.06-0.87-6.55-4.81-5.46c-0.22,0.22-0.22,1.53,0,1.75c0,0.22,1.09,0.66,1.09,0.66
			c0.66,0.66-1.53,2.18-1.75,3.06c-0.66,2.18-1.75,14.63-4.16,4.8c-0.44-1.96,2.84-1.75,1.09-3.71c0-0.22-2.19-0.87-2.19-1.09
			c-2.63-1.75-1.53,1.53-1.31,2.84c0.22,0.87,0.66,5.02,0.66,6.11c0.66,0.44,1.97,1.75,2.41,2.84c-0.44-1.75,2.63-0.44,3.5-2.84
			c1.09,2.62,1.31,0.44,3.06,1.09c0.44,1.75-0.88,3.27-1.31,4.8V425.42z M178.51,421.93c0.22-0.22,0.66-0.87,0.44-1.31
			c-0.44-0.22-0.87,0.22-1.09,0.66L178.51,421.93z M179.6,384.38c-0.44,0.22-0.44-1.53,0-1.31
			C180.04,383.29,180.04,384.16,179.6,384.38z M180.26,404.68c1.09,0.22,2.19-0.65,1.75-1.96c-0.66-0.22-1.09,0.22-1.31,0.66
			C180.7,403.59,180.26,404.46,180.26,404.68z M181.35,407.74c0.22,0,0.22-0.44,0-0.44C181.14,407.3,181.14,407.74,181.35,407.74z
			 M181.35,325.22h0.66v0.65h-0.66V325.22z M181.35,337.88c0-0.44,0.87-0.87,1.31-0.65v0.65l-1.31,2.18V337.88z M182.01,301.42
			c-0.44,0-0.44-0.65,0-0.65S182.45,301.42,182.01,301.42z M185.51,398.57c3.94-0.66-1.53-2.18-1.75-2.4
			c-0.22-0.22-0.44-1.53-0.66-1.75c0-0.22-0.22-0.22-0.44,0c-0.87,0.87-1.09,2.84-0.66,3.49S185.07,398.79,185.51,398.57z
			 M182.01,386.34c-0.22,0-0.22-0.44,0-0.44C182.23,385.91,182.23,386.34,182.01,386.34z M182.01,400.31c0,0.44,0.66,0.44,0.66,0
			C182.67,400.1,182.01,400.1,182.01,400.31z M183.1,373.46c0.22,0.44,0.66,2.18,0.66,2.4s-0.44,0.66-0.66,0.66
			c-0.22,0-0.44-0.44-0.44-0.66C182.45,375.64,182.23,373.68,183.1,373.46z M183.76,367.57c0-0.44,0.66-0.44,0.66,0
			S183.76,368,183.76,367.57z M188.57,357.53c0.66,1.75-1.09,2.18-2.41,1.75v-0.65C186.61,357.96,187.7,357.31,188.57,357.53z
			 M186.82,386.78v1.09h-0.66v-0.66C186.17,387,186.61,386.78,186.82,386.78z M188.57,371.28c0,0.22-0.22,3.28-1.31,2.18
			c0,0,0-0.87,0-1.09C187.48,372.15,188.36,371.28,188.57,371.28z M189.23,311.46c-0.87-1.31-1.31-4.8,0.44-5.24
			c1.75,1.75,2.41,0.87,4.81,1.75c1.75,0.66-1.09,4.37-1.09,5.46c-0.44,0-1.09-0.22-1.31-0.66l-1.09,2.84
			c0-0.22-0.44-1.96-0.66-2.18C190.32,313.21,189.45,311.68,189.23,311.46z M189.67,426.07v-1.75c-0.22,0.22-0.66,0.66-0.44,1.09
			C189.23,425.64,189.45,426.07,189.67,426.07z M189.67,303.38c-0.22,0-0.22-0.44,0-0.44C189.89,302.95,189.89,303.38,189.67,303.38
			z M189.67,337.88c0.44,0,0.44-0.65,0-0.65C189.45,337.22,189.45,337.88,189.67,337.88z M189.67,413.63v0.44l0.66-0.44H189.67z
			 M192.08,435.03v-3.06c-0.22-0.66-0.66-1.75-1.75-1.09c-0.22,0.44-0.22,1.96,0,2.4C190.54,433.71,191.86,434.81,192.08,435.03z
			 M190.98,366.48c0.22-0.66,0.66-3.71,0.66-4.15c0.22,0,0.44,0.22,0.44,0.44l1.31,3.71c0.44,1.09-1.97,5.24-3.06,2.4
			C190.11,368.22,190.98,366.48,190.98,366.48z M191.64,346.83c2.41-1.31,4.59,2.18,2.84,4.15c0-0.22-0.44-1.75-0.44-1.96
			C193.61,348.36,190.11,348.14,191.64,346.83z M192.08,299.67v0.44h-0.44L192.08,299.67z M191.64,355.12
			c0-0.22,0.22-1.75,0.44-1.75v2.84h-0.44V355.12z M192.08,318.67h0.66v0.65h-0.66V318.67z M194.48,415.38
			c4.81,0.87,2.63-3.06,1.31-5.46c-1.09-0.66-3.28,4.58-3.06,5.89C192.95,417.12,195.14,416.25,194.48,415.38z M193.39,420.18
			l-0.66,1.09h0.66V420.18z M194.48,305.57c-0.22-0.22-0.22-3.06,0-4.15c0.66-5.89,6.56,0.66,5.47,2.4c-1.53,1.96-3.72,0-4.81,2.4
			L194.48,305.57z M195.14,366.48c-0.44,0-0.44-0.66,0-0.66C195.58,365.82,195.58,366.48,195.14,366.48z M198.2,328.93
			c0.66-0.87,1.97-0.87,2.84-0.66c0.66,2.84-1.75,2.18-2.41,3.49c3.94,4.8-1.97,6.33-2.41,4.8
			C195.79,333.51,198.2,331.98,198.2,328.93z M199.3,433.28v-0.66c-1.09-3.49-1.53-4.8-1.09-8.95c0-0.22,0.44-1.53,0.44-1.75
			c0-1.53-1.75,0-1.75,0c0.44,3.71-0.87,6.33-0.66,10.04C196.45,433.71,197.98,433.71,199.3,433.28z M196.23,340.06
			c0,0,1.53,1.96,0,1.96V340.06z M196.89,380.67h0.66v1.31c-0.22,0-0.66-0.44-0.66-0.66V380.67z M198.2,436.12v1.31h0.44v-1.31
			H198.2z M198.64,399.88h0.66c0.22,0.87,0.44,3.06-0.66,4.15V399.88z M199.95,396.17c-1.75-3.27,5.91-1.09,1.09,1.31L199.95,396.17
			z M200.61,436.99v-0.44C200.39,436.55,200.39,436.99,200.61,436.99z M204.11,303.82l-1.09,0.66c0-0.44-0.44-2.62-0.66-3.06
			c-0.22-0.87-2.41-0.65-1.75-1.75c0-0.22,0.44-0.66,0.44-0.66h6.13c0.22,0.44,1.97,1.53,2.41,1.75c0.66,0.44,1.97-0.66,2.84-0.66
			c-0.87,1.31-2.19,6.33-4.16,2.4c0,0-1.53,6.33-3.06,7.86c0-0.44-0.44-1.96-0.44-2.4C204.55,306.88,203.89,304.7,204.11,303.82z
			 M200.61,416.47v1.75c0.66-0.22,0.66-1.09,0.44-1.75H200.61z M201.05,353.81v0.66h0.66c1.53-1.09,1.75-2.18,1.31-4.15
			L201.05,353.81z M201.7,420.62c-0.22,0-0.66,0.44-0.66,0.66c0.66,0.22,1.75,0.22,1.97-0.66H201.7z M203.01,399.22
			c0.22,0.66-0.66,1.53-1.31,1.09v-0.44C201.92,399.66,202.8,399.22,203.01,399.22z M202.36,367.57c1.31-0.22,1.31-3.93,0-4.15
			V367.57z M204.11,437.43c3.72-2.62-2.19-3.71-1.09-0.66C203.01,437.21,203.67,437.64,204.11,437.43z M203.45,374.12
			c0.44-0.22,1.09,0.22,1.31,0.65h-1.31V374.12z M204.11,420.62v1.31l0.66-0.66L204.11,420.62z M204.77,416.47
			c0.44,0,0.44-0.66,0-0.66S204.33,416.47,204.77,416.47z M206.52,411.23c0.44,0,0.44-0.66,0-0.66S206.08,411.23,206.52,411.23z
			 M206.52,343.12c0-0.44,0.66-0.44,0.66,0C207.17,343.55,206.52,343.55,206.52,343.12z M207.61,370.62c0.44-0.22,0.44-1.09,0-1.31
			C207.39,369.1,207.39,370.84,207.61,370.62z M207.61,423.67v0.66h0.66v-0.66H207.61z M207.61,445.07c0.66-0.44,1.31-2.62,0-2.84
			V445.07z M208.27,353.38v0.44h0.66v-0.44H208.27z M213.74,447.03c0.22,0,0.22-0.65,0-0.65
			C213.3,446.38,213.3,447.03,213.74,447.03z M214.17,443.98c0.66,0.44,1.75-0.66,1.31-1.31c-0.44-0.22-1.09,0.22-1.31,0.66V443.98z
			 M214.83,428.04c0.22,0,0.22-0.44,0-0.44C214.61,427.6,214.61,428.04,214.83,428.04z M214.83,434.37c1.09,1.09,3.28-4.8,3.06-5.24
			c0-0.44-0.44-2.62-0.66-3.06c0,0-1.97,6.77-2.41,7.64V434.37z M215.49,300.11l1.09-1.09c1.09,0.44,1.09,1.96,0,2.4L215.49,300.11z
			 M215.49,439.83c0.22,0.44,0.88,0.66,1.09,0.44c0.22-0.22-0.22-0.87-0.44-1.09L215.49,439.83z M218.55,450.52
			c3.28-1.31,1.75-4.58,2.84-7.2c0-0.22,1.31-0.87,1.31-1.09c0.22-0.44,0.22-2.62,0-3.06c-0.87,0.22-1.75-1.09-2.41-0.66
			c-2.63,1.53-4.16,6.77-3.06,9.61L218.55,450.52z M218.55,314.08v-0.44C218.33,313.65,218.33,314.08,218.55,314.08z M219.64,445.72
			c0.22,0.44,0.44,2.18-0.66,2.4c-0.22,0-0.44-0.44-0.44-0.65C218.33,447.03,218.77,444.85,219.64,445.72z M224.46,435.68l2.41-4.8
			c-1.53-1.96-1.53-5.02-1.31-7.2c0.22-0.87,0.87-1.09,0.66-1.75c-1.53-0.87-1.09,5.02-5.47,4.15c0.44,1.09,1.97,1.53,3.06,1.09
			c1.09,4.8-1.53,1.75-3.06,4.15c0.22,1.09,2.19,0.87,2.41,0.66L224.46,435.68z M223.15,444.63v2.4h0.66v-2.4H223.15z
			 M229.27,446.38c1.31-1.53-0.22-1.53,0.44-3.71c0.22-0.22,1.97-2.18,1.97-2.4c0.22-1.09-0.87-3.93,0.44-5.24h0.66
			c0.44,0.44,0.66,1.53,1.31,1.75c0,0,0.87,0,1.09,0c0.44,0.22,1.53,1.31,1.75,1.75v4.8c0,0.22,0.44,1.09,0.66,1.31
			c5.47-5.02,5.69-7.2,4.16-13.32c-3.28-1.53-5.03,3.27-5.91,2.4c-1.75-1.31-2.41-3.27-2.41-5.24c0,0-2.63,1.96-3.06,2.4v4.8
			c0,0.22-0.44,0.87-0.66,1.09c-0.66-0.87-0.66-1.96-0.44-3.06c-3.5-1.31-5.91,6.33-4.81,8.51c0,0.22,1.75,1.53,1.75,1.75
			c0,0.22-0.66,1.53-0.66,1.75C225.55,448.78,228.61,442.66,229.27,446.38z M224.46,451.18h0.66v-2.4
			c-0.22,0.22-0.66,0.87-0.66,1.09V451.18z M226.86,439.17c0-0.22,0.44-0.66,0.44-0.66v3.06h-0.44V439.17z M230.37,301.64
			c-0.22,0-0.22-0.44,0-0.44C230.58,301.2,230.58,301.64,230.37,301.64z M232.77,363.42c0-0.44,1.75-1.09,1.75-1.09h20.35
			c0.87,0.44,2.63,0,3.06,1.09c-0.87,1.09-2.63,5.68-4.81,4.15v0.65l3.5,3.49h0.66v-2.4c1.09-0.22,4.81,1.96,3.5-1.75
			c0-0.66-0.88-2.18-1.09-2.4c-0.22-0.22-1.09-0.22-1.09,0c-0.66-0.87,1.31-2.84,2.19-2.84h27.57l3.72,3.49
			c0.66,0.87-3.28,3.49,0.44,6.55l1.31-1.09c-0.44-2.84-0.88-5.24,1.09-7.2c0,0,0.44,0,0.66,0c3.94,1.53,1.09,2.4,3.06,2.84
			c1.31-1.96,0-1.75,0-4.15c0-1.75,6.13-0.65,7,1.75c0.22,0.22,0,2.84,0,3.06c0.87,2.84,3.5,3.71,6.13,3.06
			c0-1.53,0.22-4.58,1.75-6.11v20.3c0,1.96-0.44,6.55-0.66,6.55l-0.66,0.66h-4.16c-0.44,0-1.09-1.75-1.09-1.75l-1.75,1.75h-44.85
			l-2.41-1.75c0,0-0.87,0.44-1.31,0.66l-1.75,1.09h-9.63l-1.09-1.09v-7.86c-1.31-1.53-0.44-5.24-2.41-5.9v-5.89
			c3.06-3.71,2.84-2.4,0.66-5.46v-0.65c0-0.22-0.44-0.66-0.66-0.66l-1.75,5.46l0.66,1.31v7.64c0,0,1.53,1.31,1.09,1.75
			c-1.75,0-3.5,1.75-2.41,3.71h3.72c0,2.18-3.5,1.96-4.38,4.15c-0.22,0.87,0.66,0.65,0.66,1.75c0,1.53-6.56,2.62-6.56,1.09V363.42z
			 M235.18,316.27l0.66,0.65v-1.31L235.18,316.27z M243.49,328.93h0.66c0.87-2.4,2.84-12.88,2.41-15.06
			c-0.44-0.22-1.09,0.22-1.31,0.66l-1.75,7.2c0,0.44-1.31,0.65-1.75,0.65c0.22-0.44,0.66-2.62,0.66-3.06c0-0.22,0-0.65,0-0.65
			c-4.38-5.68,0-3.71-0.66-7.2c0-0.22-1.09-0.87-1.09-1.09c-0.22-0.65-0.22-3.06,0-3.71h-4.38c0,0-0.44,0.44-0.44,0.65
			c-0.66,1.97,0.44,0.66,1.09,2.4c0,0.22-0.22,2.84,0,3.05c0,0.22,1.53,1.53,1.75,1.75c0,0,0,0.44,0,0.66
			c-2.41,4.58-0.22,1.53,0,3.49c0.66,2.18-1.53,1.09,0,4.15c0.88,1.75,3.28,2.18,4.38,4.15
			C243.06,327.18,243.27,328.71,243.49,328.93z M235.84,428.69c0.22,0,0.22-0.44,0-0.44C235.62,428.26,235.62,428.69,235.84,428.69z
			 M237.59,374.12c0.44,0,0.44-0.66,0-0.66C237.15,373.46,237.15,374.12,237.59,374.12z M239.34,428.48l-0.66,0.65h0.66V428.48z
			 M239.34,444.63c0.44,0.22,1.09-0.22,1.31-0.65h-0.66C239.77,443.98,239.34,444.41,239.34,444.63z M239.99,452.93
			c0.44,0,0.44-0.66,0-0.66S239.55,452.93,239.99,452.93z M239.99,436.77l0.66,0.66h-0.66V436.77z M241.74,388.53
			c-0.44,0-0.44-0.66,0-0.66C242.18,387.87,242.18,388.53,241.74,388.53z M243.06,312.12c0.22,0.22,0.87-0.22,1.09-0.66l-0.66-0.44
			c-0.22,0-0.44,0.22-0.44,0.44V312.12z M246.56,432.62c0.22-1.09-0.22-2.4-1.31-3.06c-0.44,0.22-0.66,1.31-0.44,1.75
			C244.81,431.31,245.9,433.06,246.56,432.62z M246.56,448.78c0,0.22,0.66,0.22,0.66,0c0.22-0.22,0.44-1.53,0.44-1.75
			c0-0.22-0.22-2.84,0-3.05c1.75-3.49,4.16-2.4,7.22-3.06c2.41-0.44,1.09-2.4-0.66-2.84c0,0-1.53,0-1.75,0
			c-1.75-1.09,0.66-2.18,0-3.05c0,0-1.09-1.53-1.75-1.31c0.88,4.37-1.53,2.18-2.41,3.71c-0.22,0.22,0,2.18,0,2.4
			c-0.44,2.84-3.28,2.62-2.41,5.89C246.12,446.16,246.56,448.34,246.56,448.78z M247.21,306.66c0.22,0,0.22-0.44,0-0.44
			C246.77,306.22,246.77,306.66,247.21,306.66z M256.18,387.87c1.31-4.8-0.22-9.61,0-14.41h-1.31c-0.22,0-0.66,2.18-0.66,3.06v7.86
			c0,0.22,0.88,2.4,1.31,2.84C255.53,387.43,255.96,387.87,256.18,387.87z M256.62,435.68c-0.22,0-0.66,0.66-0.44,1.09
			C261.22,440.04,260.78,434.81,256.62,435.68z M256.62,442.66c0.44-0.22,0.87-0.65,0.66-1.09c-0.22,0-0.66,0.44-0.66,0.66V442.66z
			 M257.93,312.77c0.88-0.65,2.19-2.4,1.75-3.71c-0.22,0-1.75,0.87-1.75,1.31V312.77z M262.75,389.18v-1.31l-3.06-5.89
			c0-0.22,0.44-2.18,0.66-3.06c0-0.22,0.44-0.66,0.44-0.66c0.66,0.66,2.19,1.75,3.06,1.31c1.97-1.09,4.16-3.71,3.06-6.11
			c-1.31-0.66-1.75,0.44-1.75,1.31c-1.97,6.99-4.16-1.31-4.81-1.75c-3.72,2.4-2.19,10.48-0.66,13.75c0,0,1.09,0.22,1.09,0.44
			C260.78,387.21,261.22,390.49,262.75,389.18z M261.43,442.23c0.44-1.09-0.44-1.96-1.09-2.4c-0.88,0.22-0.88,1.09-0.66,1.75
			C259.9,442.45,260.78,442.45,261.43,442.23z M260.34,319.98h0.44v-1.96c0,0-0.44,0.44-0.44,0.66V319.98z M262.75,445.72
			c0.22,0,0.22-0.66,0-0.66C262.31,445.07,262.31,445.72,262.75,445.72z M263.18,450.52h0.66c1.09-0.65,0.87-1.96,0.66-3.05
			c-0.44-0.22-1.31,0.22-1.31,0.65V450.52z M267.78,451.62l0.88,0.66c1.09-0.22,0.66-3.06,0.66-3.06c0-0.44,0.44-2.84,0.44-3.49
			c-2.63-1.96-1.75-9.17-4.59-7.64c-0.44,1.96,0.87,5.46,1.09,6.99l1.53,0.66V451.62z M265.59,384.81c0.44,3.49,3.06-0.44,0.66-2.84
			h-0.66V384.81z M269.31,436.77c0.44-0.22,0.44-0.87,0-1.09C268.87,435.46,268.87,436.99,269.31,436.77z M270.4,368.88v0.44h0.66
			v-0.44H270.4z M271.06,445.72c0,0.44,0.66,0.44,0.66,0S271.06,445.29,271.06,445.72z M272.16,310.59c-0.22,0-0.22-0.44,0-0.44
			C272.37,310.15,272.37,310.59,272.16,310.59z M274.56,448.78c-0.66-1.75-2.41,0.22-2.41,1.09
			C272.16,451.4,275.44,450.09,274.56,448.78z M272.81,431.97c0.44,0,0.44-0.66,0-0.66C272.37,431.31,272.37,431.97,272.81,431.97z
			 M274.56,440.92c0.22,0,0.66,0,0.66,0l3.06-2.84c-0.66-3.05-5.25,0-4.81,1.75C273.47,440.04,274.13,440.7,274.56,440.92z
			 M274.13,306.88c-0.22,0-0.22-0.22,0-0.22V306.88z M274.13,302.08c0,0,2.19-3.49,3.5-2.4c0.22,1.09,0.22,4.15-1.31,4.8
			c0-0.22-0.22-1.09-0.44-1.31C275.44,302.51,274.56,302.29,274.13,302.08z M274.13,435.68l0.44,0.44l0.66-0.44l-0.66-0.65
			L274.13,435.68z M278.72,452.27c0.66-2.18-2.84-4.15,0-5.89c-1.31,0-3.5-3.93-4.16-1.75v1.75c0,0.22,1.31,0.87,1.31,1.09
			c0.87,1.96,0,1.96,1.09,3.71C276.97,451.18,278.28,452.71,278.72,452.27z M276.31,337.88h1.97c0,0-1.31,1.53-1.97,1.09V337.88z
			 M287.25,335.48c1.53-0.22,2.63-2.4,4.16-1.96c-0.22-3.71,2.63-4.37,2.84-7.64v-2.4c0.66-1.96,2.41-3.49,3.06-5.46
			c0.87-3.27-3.28-4.8-3.5-5.89c-0.22-0.66-0.66-3.49-0.66-4.15c-0.88-0.87-2.19,3.28-3.06,3.49c-1.97-0.87,0.66-3.71,1.31-4.8
			c1.09-1.96-10.06-9.83-8.31-3.49c-4.38,0.87-4.38-3.28-1.97-4.15h4.81c2.41,0.22,1.31,0.66,3.06,1.75
			c0.22,0.22,3.28-1.31,4.81-1.09c1.97,0.44,0.22,4.37,2.41,0c0-0.22,0.44-0.66,0.44-0.66h21.66l1.09,1.09
			c0.22,0.22,0.22,4.37,0,6.11c-0.22,2.62-1.09,5.02,0,7.64v24.01l-1.09,1.09c-0.22,0.22-3.5,0.22-4.81,0
			c-1.53-0.22-1.31-1.31-3.06-1.09c-0.22,0-1.53,1.09-1.75,1.09c-1.97,0.66-3.72-1.09-4.81-2.4c0.22-1.31,1.09-6.11-1.09-7.64
			c-1.75,0.66,1.75,10.04-1.31,10.04h-10.72c-0.22,0-1.09-0.44-1.09-0.66C288.78,337.88,287.47,336.57,287.25,335.48z
			 M282.44,316.92c1.97-1.09,1.31,3.06,1.09,3.49l-1.09,3.06c-0.66,0.22-1.53,0.22-1.75-0.66
			C282.66,321.72,282.66,318.88,282.44,316.92z M280.69,331.11c1.31-0.66,1.09,2.18,1.09,2.4c0,0.22-0.66,0.22-0.66,0
			c0,0-0.22-1.31-0.44-1.75V331.11z M284.85,323.69c-0.22,0-0.22-0.44,0-0.44S285.07,323.69,284.85,323.69z M285.94,376.52h1.31
			v-0.66h-0.66C286.38,375.86,285.94,376.3,285.94,376.52z M290.75,316.27c-0.22-0.44,0.22-0.87,0.66-1.09
			c0.44-0.22,2.63-0.66,2.84-0.66c1.31,0,0.88,2.84-0.44,2.4c-0.22,0-1.09-0.65-1.31-0.65H290.75z M291.41,321.72
			c-0.44,0-0.44-0.66,0-0.66C291.85,321.07,291.85,321.72,291.41,321.72z M292.5,326.96c-0.44,0.44-0.44-2.62,0-2.4
			C292.94,325,292.94,326.74,292.5,326.96z M294.25,374.12c0,0.22,0,0.65,0,0.65C298.19,377.39,296.88,371.5,294.25,374.12z
			 M301.47,381.98l-3.5-3.71c-0.22,1.53,0.44,1.75,0.66,3.06c0,0.44,0.22,3.71,0.44,4.15C299.51,387.21,303.23,383.72,301.47,381.98
			z M297.97,311.46c0,0.22,0.44,0.66,0.66,0.66v-1.75h-0.66V311.46z M299.07,334.82v1.09h0.66v-1.09H299.07z M300.38,374.77
			c0.22,0.22,0.87,0.22,1.09,0c1.53-1.31-0.22-5.67-1.09-7.2c-1.97,0.22-0.22,4.15,0,5.46V374.77z M301.47,326.96
			c0.22,0,0.66-0.22,0.66-0.44c0.22-0.44,0.66-2.62,0.66-3.06c-0.22-0.44-0.88-0.87-1.31-0.66c-1.09,0.66-0.66,2.84-0.66,3.71
			C300.82,326.74,301.26,326.96,301.47,326.96z M301.47,317.58c5.47-1.75,3.72-11.35,0-0.66V317.58z M303.88,431.31v-1.75
			c-0.66-0.44-1.53,0.66-1.09,1.31C303.01,431.31,303.44,431.53,303.88,431.31z M303.23,367.57c0.44,0,0.44-0.66,0-0.66
			C303.01,366.91,303.01,367.57,303.23,367.57z M305.19,446.38c0,0,1.75,1.31,1.75,0c-0.87-1.53-1.53-3.71-1.75-5.46h-0.66
			c0.87,2.4-1.97,3.06-1.31,5.46H305.19z M303.88,421.93v0.65h0.66L303.88,421.93z M304.54,324.13c3.28,0.65,4.6-4.58,1.09-4.8
			c-0.88,0.44-1.09,2.62-1.09,3.06C304.54,322.38,304.54,323.91,304.54,324.13z M307.6,439.83c5.69,1.31-0.66-4.58-1.31-4.15v4.15
			H307.6z M311.76,377.83c-2.19,1.09-1.97-1.09-3.06-1.96c-0.22,0.22-0.22,1.75,0,1.96C310.23,381.1,312.41,378.92,311.76,377.83z
			 M309.35,364.51c-0.44,0.22-0.44-1.96,0-1.75C309.79,362.98,309.79,364.51,309.35,364.51z M309.79,428.48
			c2.19,0.65,2.19-1.53,0.66-2.4c-0.22,0.22-0.66,1.53-0.66,1.75V428.48z M310.45,444.85c0.22,0,0.22-0.44,0-0.44
			C310.23,444.41,310.23,444.85,310.45,444.85z M312.2,327.62c4.38-0.66,1.53-3.71,1.97-6.55c0.22-2.4,2.41-1.53,1.75-4.8
			c0-0.44-1.09-2.4-1.75-2.84c-0.22,0-0.66,0.22-0.66,0.44c0,0.22-0.66,2.84-0.66,3.06c-1.09,3.71-2.41,5.89-1.09,10.04
			C311.76,327.18,311.98,327.62,312.2,327.62z M318.32,424.33v0.44l0.44-0.44H318.32z"/>
		<path class="st1" d="M338.88,457.73V347.26c0.66-1.75,0.87-2.62,0-4.15v-44.1h35.88c1.09,0,3.5,1.96,4.16,3.06
			c0,0.44-0.44,3.49-0.66,4.15c-0.22,1.75-2.19,4.15-1.75,5.89c0.22-0.22,1.53-0.22,1.75,0c1.97,1.75,0,7.42,0,8.95
			c0,0.87,0.44,4.58,0.66,5.46v68.55c0,1.53-0.66,9.17-0.66,10.7v0.66c0,1.31,0.66,7.42,0.66,8.95c0.22,0.44,0.66,1.31,1.31,1.75
			c2.19,0.22,12.69,0.66,14.88,0.66c2.19,0,3.5-0.66,5.25,1.09c0,0,0,0.87,0,1.31c-0.88,5.46-1.97,0-3.5,3.49
			c-1.09,2.4,3.5,3.93,4.16,5.46c0.44,0.44,3.5,6.55,1.31,6.55h-6.56c0,0-0.66-0.87-0.66-1.31c-0.44-1.53,5.25-4.58-0.88-5.24v-3.71
			c-3.28-0.66-1.53-3.49-3.28-4.15c-1.53-0.44-6.56,3.49-7.88,1.31c-0.22-0.65,0.66-2.4-0.66-2.4c-0.22,0-1.97,0.66-2.19,1.09
			c-4.38,4.15,3.72,4.37,2.19,8.29c0-0.22-1.53-0.22-1.75,0c-1.09,0.66-4.16,6.55-0.44,5.46c3.5-1.31,0.66-2.84,5.91-3.71h1.09v2.4
			h0.66l1.31-6.55c0.22-1.96,2.63,0.22,0.44,5.46c-2.19,5.24-5.03,1.09-8.31,5.46l-0.66-0.65c-0.22,0.65-0.22,3.49,0,4.15
			c1.53,3.06,4.38,4.37,7.22,4.8c0.22-0.87,1.09-1.96,1.75-2.4c4.81-3.06,4.38,5.24,6.13,3.49c0.88-0.87,0.22-1.75,1.75-2.4h2.41
			c0.66-0.22,4.38-4.8,3.5-6.55c1.31-0.44,3.28,3.93,2.41,4.8c-2.62,3.49-5.47-0.66,0,4.8c0.66,0.66,1.75,1.09,2.41,0
			c-1.97-2.18-1.09-3.06-0.66-5.89c0.22,0.44,0.66,1.31,1.31,1.75c0.66-1.75,0.22-5.02,2.41-5.9l0.44,0.44v6.11
			c0.66,0.22,4.38-3.71,3.06,1.09c2.19,1.53,1.97-6.33,4.16-5.46c0.22,0.87-0.66,1.75-0.66,2.4c0,0,5.03,4.37,5.47,4.37
			c0.22,0,1.09-0.44,1.31-0.65v-3.71c0.22-3.27,4.16,4.37,4.16,4.37c0.66,1.53-5.69,3.28-4.81,5.9c0,0,0.44,0.44,0.66,0.65
			c0,0,1.09,0.22,1.09,0.44c1.31,3.28-1.09,2.84-3.06,3.71c-5.69,0.22-10.72-0.66-15.97,0c-2.19,0.22-3.28,0-4.81-1.31
			c-0.87-2.4,2.41-3.28,0.44-5.9c0,0-0.22,0-0.44,0c-1.31,0.66-0.44,1.09-0.66,2.4l-1.31,3.49c-1.53-0.44-2.41,1.31-4.16,1.31
			H338.88z M339.98,335.48c1.53,0.66,1.31-1.96,1.31-2.4c-0.44-0.22-1.09,0.22-1.31,0.44V335.48z M340.63,340.28
			c0.22,0,0.22-0.22,0-0.22C340.41,340.06,340.41,340.28,340.63,340.28z M345.45,347.26h0.66c0.44-3.71,3.28-6.99-3.06-5.89
			c-0.44,0-0.87,0.87-0.66,1.09c4.38,0.44,2.41,1.09,2.41,3.71C344.79,346.39,345.23,347.05,345.45,347.26z M343.7,317.14
			c0.22,0,0.22-0.44,0-0.44C343.48,316.7,343.48,317.14,343.7,317.14z M345.45,325.87c0.44-0.22,0.44-1.09,0-1.31
			C345.01,324.56,345.01,326.09,345.45,325.87z M346.54,312.77c0,0.44,0.66,0.44,0.66,0C347.2,312.34,346.54,312.34,346.54,312.77z
			 M347.2,326.53c0.44,0.22,1.09-0.22,1.31-0.66l-0.66-0.65c-0.22,0-0.66,0.44-0.66,0.65V326.53z M359.89,357.53
			c-0.22-1.96-0.22-4.58,0.44-6.55c1.97-1.09,1.53,3.71,1.97,4.15c2.41,3.71,5.47,0.22,4.6-3.06v-1.09
			c0.44-1.09,6.56-6.77,0.66-5.46c1.53-1.53,1.75-4.8,4.16-5.46c0.88,0.22,0.88,1.31,0.66,1.96h0.66l0.44-6.55
			c-8.97-2.84,1.09-3.49,0.66-4.8c-2.84-4.15-7.44-3.93-6.56,1.75c-0.44,0.22-1.09-0.22-1.09-0.66v-5.89
			c1.31-1.31,1.75-3.49,2.41-5.46c0.44-1.75-3.28-3.71-3.28-2.84v2.84c-0.88-2.4-1.09-5.02-1.09-7.64
			c-0.22-0.22-0.87,0.22-1.09,0.66c1.09,3.06-0.66,6.33-3.06,8.3c-0.22,0.22-1.09-0.22-1.09-0.66v-6.55c0,0-0.44-0.66-0.66-0.66
			c-1.31-0.65-0.88,5.46-1.09,6.55c-0.87,0.87-1.31-1.53-1.97-1.75c-2.19-1.09-0.44,3.71,0,4.15c0,1.31-3.28-0.22-4.16,0v-0.44
			c0-0.22,1.31-1.75,1.31-1.96c0-0.22-1.31-1.53-1.31-1.75c-2.63-5.24-4.81-1.75-2.84,2.4c0.22,0.22,1.09,2.18,1.09,2.4v3.06
			c0.22,0.44,4.16,2.18,2.41,5.89c-0.22,0.44-2.19,1.96-2.41,2.4c-0.22,0.87-0.22,3.93,0,4.8c1.53,2.84,2.84-3.28,3.06-3.71
			c0.66-1.53,3.72,0.22,1.09,3.71c-0.22,0.22-0.44,0.87-0.44,1.09c-0.44,1.53-0.88,6.77,1.75,3.06c0.44,2.18-1.53,3.06-0.66,5.9
			c0,0.22,1.09,1.09,1.09,1.31c1.31,1.96,1.53,4.58,2.41,6.55C357.92,357.53,359.89,358.84,359.89,357.53z M362.73,435.03
			c0-0.44-0.44-2.62-0.44-3.06c0-0.22-0.66-0.87-0.66-1.09c0-4.8,2.41-5.68-4.16-7.2c-0.87-2.62,2.84-1.96,4.16-1.75
			c0.22,0.65,0.66,1.31,1.09,1.75c0.22,0,0.66-0.44,0.66-0.65c1.09-3.71-4.6-5.02-1.09-7.2c0.88-0.44,1.97-3.06-0.66-2.18
			c-0.88,0.44-3.72,3.28-4.16,4.15c-0.87,0.87,0,2.4-1.31,2.84l-2.84,1.31c-1.31-0.22-0.66-3.06-0.66-3.06h-0.66
			c-2.19,2.18-1.97,5.46-1.75,8.29c0.22,0,0.88,0.44,1.09,0.66c0.87,0.66,4.16,3.93,4.81,4.8c0-0.22,0.44-1.09,0.66-1.31h0.66
			c-0.66,3.06,0.66,3.27,2.84,3.71C361.2,435.24,362.29,436.33,362.73,435.03z M351.35,433.71v-2.84c-0.88-1.09-1.31,1.96-1.09,2.4
			S351.14,433.93,351.35,433.71z M354.42,442.66h0.66c0,0,0.44-0.87,0.44-1.09c0.88-1.31,2.84-0.44,3.72-1.75
			c0.66-1.31-4.38-4.37-6.56,0v0.44C352.89,440.7,353.98,442.45,354.42,442.66z M356.17,333.08c0.44,0.22,0.87,0.65,0.66,1.09h-0.66
			V333.08z M357.48,346.83c-0.44,0-0.44-0.65,0-0.65C357.7,346.17,357.7,346.83,357.48,346.83z M360.32,333.51
			c0.87,1.31-1.09,2.84-1.75,1.31C358.14,333.73,359.23,331.98,360.32,333.51z M362.73,366.91v-1.09c-0.44-0.22-0.87,0.22-1.09,0.66
			C361.86,366.91,362.29,367.13,362.73,366.91z M361.64,441.57l2.41,1.09c0.66-0.87-1.75-2.18-2.41-1.75V441.57z M363.39,427.82
			v1.31c0.66,0.22,1.53-0.65,1.09-1.31H363.39z M364.04,438.08c0.22,0.22,0.66,0.66,1.09,0.44c0.22-0.44-0.22-0.87-0.66-1.09
			L364.04,438.08z M365.14,327.62c-0.44,0.22-0.44-1.31,0-1.09C365.58,326.74,365.58,327.4,365.14,327.62z M366.89,334.82
			c0.44-0.22,1.09,0.22,1.31,0.66h-1.31V334.82z M367.55,421.27v0.66l0.66-0.66H367.55z M369.3,418.43c0.22,0,0.22-0.44,0-0.44
			S369.08,418.43,369.3,418.43z M371.7,448.12c-0.44-1.75-2.63-1.31-2.41,0C369.73,449.43,372.14,450.09,371.7,448.12z
			 M372.36,440.26c4.16,2.62,2.63-10.04,1.75-11.79c0-0.22-0.88-1.09-1.09-1.31c-0.22-0.22-1.53-2.84-2.41-2.4
			c-0.44,1.09,2.19,5.02,1.75,7.2c-0.22,1.09-1.53,5.67-1.09,6.55C371.26,438.95,372.14,440.26,372.36,440.26z M371.7,422.58
			c0.44-0.22,0.88-0.87,0.66-1.31h-1.09v0.66C371.26,422.14,371.48,422.58,371.7,422.58z M371.7,318.88c0.22,0,0.22-0.44,0-0.44
			S371.48,318.88,371.7,318.88z M372.36,395.08l-0.66,0.65h1.31L372.36,395.08z M371.7,417.12h1.75v-1.31h-0.44L371.7,417.12z
			 M372.36,371.71c0.44,0,0.44-0.44,0-0.44C371.92,371.28,371.92,371.71,372.36,371.71z M373.01,411.23c0.44,0,0.44-0.66,0-0.66
			C372.58,410.57,372.58,411.23,373.01,411.23z M373.01,362.33c0.22-0.44,2.41-3.71,0.44-4.37c0,0-0.44,0.44-0.44,0.66V362.33z
			 M373.01,442.66v2.4c1.31,0.87,1.09-1.96,1.09-2.4H373.01z M373.45,368.22c0.44,0,0.44-0.65,0-0.65
			C373.23,367.57,373.23,368.22,373.45,368.22z M374.11,400.97v1.31h0.66v-1.31H374.11z M374.77,333.08l0.66,1.09v-1.09H374.77z
			 M376.52,446.38c1.97-1.09,1.31-5.89,1.31-6.55c0.44,0,1.53-0.44,1.09-1.31c-1.75-3.71-3.94,5.9-3.5,7.2
			C375.64,446.16,376.08,446.59,376.52,446.38z M383.08,424.76c0-0.22,0.66-0.22,0.66,0C383.74,425.2,383.08,425.2,383.08,424.76z
			 M384.83,438.08c1.75-0.44,5.47,3.28,4.81,4.15c-1.53,0.22-2.63,0.44-3.5-0.66C385.49,440.48,385.05,439.17,384.83,438.08z
			 M386.14,426.29c-0.22,0-0.22-0.44,0-0.44C386.36,425.86,386.36,426.29,386.14,426.29z M390.96,435.68
			c0.22-0.22,0.88-0.65,1.09-0.65c0-0.66-0.66-4.15,0.66-5.46c0.44,0,3.28,11.57-1.75,6.55V435.68z M396.21,453.58
			c0,0.22,0.66,0.22,0.66,0C396.86,453.14,396.21,453.14,396.21,453.58z M407.15,417.78h10.72c2.63,0,3.72,2.4,6.56,1.75v4.8
			c-3.06,1.09-3.94-2.62-4.81-1.75c0.22,0.22-0.22,1.96-0.66,2.18c-0.22,0.22-1.53,0.22-1.75,0c-0.22-0.22-1.09-2.4-1.09-2.84
			C415.46,420.62,405.83,421.27,407.15,417.78z M407.59,431.31h0.66v0.66h-0.66V431.31z M410.65,435.03h0.66l-0.66,0.65V435.03z
			 M432.09,447.03c-0.22,0-0.22-0.65,0-0.65C432.53,446.38,432.53,447.03,432.09,447.03z M433.4,454.02c1.09,0.22,1.09,2.84,0,3.06
			c-0.22,0-0.66-0.44-0.66-0.65C432.75,455.98,433.19,454.45,433.4,454.02z M434.5,448.12h1.31c0.22,0.44,0.44,2.18-0.66,2.4
			c-0.22,0-0.66-0.44-0.66-0.65V448.12z M439.31,454.02c1.31,0.87,2.41,2.4,3.72,0c0.66,0.66,1.97,2.4,0.44,3.06
			c-2.41,0.22-3.5,0.66-5.25-0.65C436.9,455.76,438.44,453.58,439.31,454.02z M447.19,451.18v-6.11h-1.31
			c0,0.66-0.44,3.71-0.66,4.15c0,0.44-0.66,0.87-1.09,0.66c-0.66-0.22-3.06-1.31-3.5-1.75c2.19-3.49,2.19-7.86,5.91-10.04
			c1.09-0.87,2.41,2.4,3.5,1.75c-0.22-1.96,0.44-6.77,2.41-7.86c-0.44-0.87-0.66-0.44-1.75-1.09c-0.22-0.22-1.53-1.75-1.75-1.75
			h-1.75c-2.85-1.31,0.44-3.06,0.44-4.8c0-1.96-0.66-1.31-0.44-2.4c1.09-6.55,0.87-1.53,4.16-4.15h26.26v39.95h-19.69
			c-0.66,0-1.75-5.46-3.06-1.75c-0.22,0.44-0.66,1.96-1.75,1.09c0-0.65,0.44-6.99,1.09-7.86c3.06-2.84,1.31-2.84,3.72-0.44h0.66
			c0.22-1.96-0.22-3.71-1.97-4.8c-0.44,0.22-3.06,1.31-3.5,1.75c-1.53,1.09,0.66,4.37-1.09,4.8c-2.19-3.05-3.06,0.22-2.41,2.4
			c0.22,1.09,3.5,3.71,0.44,4.8c-1.31,0.44-2.63,0.22-3.5-0.66C444.13,455.54,445.22,452.27,447.19,451.18z M444.13,426.07h0.66
			c0.22,0.66,0.22,1.53-0.66,1.75V426.07z M445.22,431.97c0.44-2.84,2.19-0.22,3.72-0.66c0.44,1.53-1.75,4.58-3.72,3.71V431.97z
			 M448.94,427.82l3.06-0.66c0,0,0-0.22,0-0.44c-0.44-1.53-1.09-1.96-3.06-1.31c-0.22,0-0.87,1.53-0.66,1.75
			C448.28,427.38,448.94,427.82,448.94,427.82z M457.25,452.27c0,0,1.53,0.44,2.41,0.66c3.5,0.65,3.28-3.28,1.31-4.8l-3.72,3.49
			V452.27z M459.66,426.07c1.31-0.87-0.22-3.49-0.66-3.05v0.65C459,424.11,459.44,425.64,459.66,426.07z M462.07,455.98
			c0.44,0,1.09-0.22,1.09-0.66l-0.44-0.66c-0.22,0-0.66,0.44-0.66,0.66V455.98z M464.47,434.37v0.66c0.44,0.22,0.87-0.22,1.09-0.66
			H464.47z M466.88,431.97c0.22-0.44,0.88-1.09,0.66-1.75c-0.66-0.44-1.75,0.66-1.31,1.09
			C466.22,431.53,466.66,431.97,466.88,431.97z M468.63,447.03c0.66-1.75,0.87-3.27,0.66-4.8h-0.66c-1.31,0.66-0.87,3.27-0.66,4.15
			C467.97,446.59,468.41,447.03,468.63,447.03z M468.63,423.67v0.66h0.66v-0.66H468.63z M469.94,431.31v-2.18h-0.66
			c0,0,0,1.53,0,1.75C469.29,431.09,469.73,431.31,469.94,431.31z"/>
		<path class="st1" d="M494.01,457.73V154.14c0-3.36,9.19,0,10.07,0.84c1.09,1.26,1.53,12.16,1.31,13.84
			c0.87,1.26,2.19-5.03,2.84-5.45c2.19-2.51,3.28,0,0-4.61c0,0-0.44-0.84-0.44-1.26c2.19-6.29,11.82-9.22,10.72,2.1h2.41
			c-0.22,0.84-0.87,2.51-0.66,3.77c1.31,0.42,3.5-1.68,3.5-4.61c0-1.68-2.84-2.94-3.5-4.61c0.88,0,3.94-1.26,4.81-1.26
			c1.97-0.42,3.06,3.77,3.5,3.36c1.97-1.26,2.19-2.94,4.16-2.1c0.22,0,0.66,0.84,0.66,0.84v62.06c-1.31,3.77,0.66,9.64,0.66,13.84
			c0,9.64-0.66,87.64-0.66,97.28v60.8c-1.53,4.19,0.66,10.48-0.66,15.93c0,0.42-1.09,2.94-1.09,3.36c0,1.26,1.31,4.19,1.75,4.61
			v44.87H494.01z M498.16,204.45c1.75,0.84,3.72-3.35,1.75-4.61c-0.44,0.42-1.53,2.51-1.75,3.36V204.45z M504.73,196.49h0.66
			c3.06-10.07-1.75-8.39-1.31-2.52C504.07,194.39,504.51,196.07,504.73,196.49z M505.38,209.07l0.66-1.26c0,0-1.31-2.94-1.97-2.1
			v0.84L505.38,209.07z M509.54,428.79c0.87-2.94,1.97-2.51,3.5-4.61c2.84-2.94,3.72,5.87,6.12,0c1.75-4.19,3.5,1.68,3.5-2.1V409.5
			c0-2.51,3.28-4.19,1.09-6.71c-1.97-2.94-1.97,5.45-2.19,6.71c-0.22-3.77,0.87-14.67,0.44-18.45c-0.22,0.42-0.87,1.26-1.09,1.26
			c-2.63,0,2.19-5.87,1.09-9.22c-0.22-0.84-1.31-2.1-1.75-2.1c0,0.42-0.22,4.61-1.09,5.45c-0.22,0-0.66-0.84-0.66-0.84
			c-1.31-12.58,3.5-5.03,4.16-8.39c0.66-2.94-0.22-1.68-1.09-3.35c-1.31-1.68-2.19-6.29-3.72-7.97c-0.87-0.84-2.19,1.26-2.84,1.26
			c-1.53,0-0.66-7.13,5.25-5.87c0.22-1.26,0-3.36-0.66-4.62v-15.93c0-1.68,0.22-4.19,1.31-3.35c2.84,1.68,6.13-1.26,5.25-7.97
			c-0.22-1.26-2.41-5.87-2.84-7.13c-0.44-0.84-2.63-5.03-2.41-5.45c0.22-0.84,1.53-2.94,1.09-4.61c-0.44-3.36-1.31-2.94-0.44-7.13
			c0.87-5.45,4.16-5.03,1.09-13.42c-0.66,1.26-1.09,12.58-3.06,10.07c-1.09-6.29,2.41-5.03,1.31-11.32
			c-2.19,2.94-3.28,7.13-2.41,12.58h-0.66c-6.78-6.71-1.53,7.13-1.75,7.97c-1.09,1.26-1.75-3.35-3.06-2.1
			c-0.44,0-2.41,2.52-2.85,3.36c-1.53,1.68-0.22,6.29-1.97,7.97c-1.09,1.26-1.31-3.78-2.84-2.52v15.09c0,2.94,2.84-1.68,2.41,5.87
			c-1.09,10.9,0.44,4.19,1.75,8.81c0.87,3.77,1.31,11.32,1.09,15.09c0.88,0.84,1.09-2.09,1.97-1.26c0,3.77-0.22,11.74-0.66,15.93
			c-0.44,4.61-2.19-3.35-2.41-3.35c-1.09-0.42-3.28-0.84-4.16,1.26v10.48c0.22,3.36,1.09,3.36,0.66,6.71
			c-0.66,3.36-3.06,10.48-1.31,13.84l2.41,3.35c0.66,1.68,0,5.87,1.09,6.71c9.19,8.81-0.87,6.71,0,9.23L509.54,428.79z
			 M507.79,302.99c0.22,0,0.44,0,0.44,0c0.88-1.68,3.5-4.61,2.41-7.96h-0.44c-4.38,8.39-3.5-2.52-5.47,0
			c-0.66,2.94,0.22,4.19,1.31,5.45L507.79,302.99z M505.38,370.51c0.44,0,0.44-1.26,0-1.26
			C504.95,369.25,504.95,370.51,505.38,370.51z M506.48,399.02v2.52h-0.44v-1.26C506.04,399.86,506.26,399.02,506.48,399.02z
			 M506.04,427.96h1.09v-5.87h-0.66c-0.22,0.42-0.44,2.1-0.44,2.1V427.96z M506.48,213.68v3.35c1.09,1.26,1.53-2.51,1.31-3.35
			c1.31-1.26,1.53,5.03,2.41,3.35v-10.48c0,0-0.44-0.84-0.66-0.84c-0.88-0.84-1.53,1.68-1.75,2.1L506.48,213.68z M507.13,204.87
			c0.22,0,0.22-0.84,0-0.84C506.91,204.04,506.91,204.87,507.13,204.87z M507.13,291.67c0,0.42,0.66,0.42,0.66,0
			C507.79,290.84,507.13,290.84,507.13,291.67z M507.79,380.99h0.44c0.22,0.84,0,4.61-1.09,3.36v-1.26
			C507.13,382.67,507.79,380.99,507.79,380.99z M507.79,181.81c0.22,0,0.22-0.84,0-0.84C507.57,180.97,507.57,181.81,507.79,181.81z
			 M507.79,326.9h0.44c0.22,0.84,0,2.1-0.44,2.52V326.9z M510.2,246.81c0.22,0,0.44-0.84,0.44-1.26v-6.71
			c-1.97-1.26-2.19,2.94-1.75,5.87C508.88,244.71,509.98,246.81,510.2,246.81z M510.63,281.19c0.66-2.1-1.09-3.35-1.75-1.26
			C509.1,281.61,510.2,281.61,510.63,281.19z M510.63,322.28c-0.22,0-0.22-0.84,0-0.84C511.07,321.45,511.07,322.28,510.63,322.28z
			 M515.45,198.58c1.53-1.68,3.5-9.64,0.66-11.32c-1.09,0.84-1.09,5.03-1.09,5.87c-0.87,1.26-1.09-3.35-1.97-3.77h-2.41
			c0.22,1.26,1.09,4.61,1.97,5.87L515.45,198.58z M512.6,248.07c0-0.42,0.44-2.1,0.44-2.52c0.22-2.51,0.22-9.64,0-10.06l-1.09-2.52
			l-0.66,1.26c0.44,0.42,1.31,2.52,1.31,3.36V248.07z M511.29,305.09v1.26l0.66-1.26H511.29z M511.29,347.44
			c0.22-2.51,1.97-4.61,3.06-5.45c0.66,5.45-1.31,0.84,0.66,7.96v1.26c-1.53-0.42-2.63,1.68-3.72,0.84V347.44z M517.2,222.9
			c-2.19,0.42-4.16-1.26-5.25-4.61c-0.66,4.19,0.66,7.97,2.41,9.22C516.54,228.78,516.98,229.19,517.2,222.9z M511.95,166.72
			c3.06,1.68,1.09-5.87,0-4.62V166.72z M511.95,332.77c0-0.42,0.66-2.09,0.66-2.51v-4.19c1.97-2.09,2.41,12.16-0.66,10.07V332.77z
			 M517.85,290.42h0.66c0.44-1.68,0.22-5.03-1.31-4.62c1.09-2.09,0.66-7.55,0.66-9.22c-0.87,0.42-3.94-2.1-4.81-1.26
			c-1.53,1.68,0.66,3.77,0,5.87c-1.53,5.87-1.31,13,1.97,4.61C515.23,286.64,517.42,289.58,517.85,290.42z M512.6,259.39
			c0,0.42,0.87,0.42,1.09,0c1.97-3.77-0.87-6.29-1.09-3.36V259.39z M513.7,176.36c0.22,0,0.22-0.84,0-0.84
			C513.48,175.52,513.48,176.36,513.7,176.36z M515.01,236.32v1.26h0.44v-1.26H515.01z M515.01,314.32
			c0.22-0.42,0.87,0.42,1.09,1.26c-0.22,0.84-0.88,1.68-1.09,1.26V314.32z M515.45,257.29c0.22,0,0.22-0.42,0-0.42
			C515.23,256.87,515.23,257.29,515.45,257.29z M515.45,265.26c0,0.84,0.66,0.84,0.66,0S515.45,264.42,515.45,265.26z M517.2,395.67
			c-0.22,0-0.22-1.26,0-1.26C517.63,394.41,517.63,395.67,517.2,395.67z M518.51,234.23v1.26h0.66L518.51,234.23z M519.61,401.54
			c-0.22,0.42-0.22-3.77,0-3.36C520.04,398.6,520.04,401.12,519.61,401.54z M528.14,238.84c-0.22-2.94-1.09-5.03-1.97-7.13v-14.68
			c0-2.51-0.22-13-2.41-13.84c-0.44-0.42-1.97-0.84-2.19,1.26c-0.66,3.77,1.09,3.77,0,9.23c-0.22,0.84-1.75,4.19-1.97,5.45
			c-0.22,4.19,0.87,14.68,0.66,18.45h0.66c1.75-2.52,3.5-5.45,2.41-10.07c1.75-1.68,1.75,8.39,2.41,10.07
			C525.95,239.68,527.26,239.26,528.14,238.84z M519.61,410.76c1.53,0,0,3.36,0,3.36V410.76z M523.76,262.74
			c0.44-2.51-1.53-14.67-3.5-9.22c-1.31,3.77,0,3.77,0.66,8.39c0,0,0,2.94,0,3.36C521.57,270.71,523.54,265.67,523.76,262.74z
			 M520.92,191.87c0.44,0,0.44-1.26,0-1.26C520.48,190.62,520.48,191.87,520.92,191.87z M522.01,171.33l2.41-5.87l-0.66-1.26
			c-0.44-0.84-2.62,4.19-2.19,5.87C521.57,170.49,521.79,171.33,522.01,171.33z M522.01,348.7l0.66,1.26v-1.26H522.01z
			 M522.67,188.52c0.44,0,0.44-1.26,0-1.26C522.23,187.26,522.23,188.52,522.67,188.52z M523.76,305.09h0.66v-2.1
			c-0.22,0-0.66,0.84-0.66,1.26V305.09z M525.08,172.17v5.87h0.66c0.66-1.68,0.66-3.77,0.44-5.87H525.08z M526.82,321.45l-0.66-8.39
			c-0.22,2.1-0.66,5.03-0.44,7.13C525.95,321.03,526.39,321.45,526.82,321.45z M528.14,198.58c-0.66-0.42-1.75-0.42-1.97,1.26
			C526.82,201.94,527.92,201.1,528.14,198.58z M526.17,338.64l0.66,0.84v-0.84H526.17z M528.14,318.93c0.66-0.42,0.66-2.1,0.44-3.36
			c-0.44-0.84-1.53,1.26-1.09,2.1C527.48,318.09,527.92,318.93,528.14,318.93z M529.23,184.75c0.44-2.1-0.66-4.19-1.75-3.36v1.26
			C527.7,183.91,528.14,186.42,529.23,184.75z M527.48,215.77v2.52c0.66,0.84,1.53-1.26,1.09-2.52H527.48z M527.48,308.87v0.84h0.66
			v-0.84H527.48z M529.23,228.35c0.88,0.84,1.53-1.68,1.75-2.09c0.66-1.68-2.41-5.45-2.41,1.26
			C528.58,227.52,529.01,228.35,529.23,228.35z M530.55,336.12c0.22,0,0.22-1.26,0-1.26C530.11,334.86,530.11,336.12,530.55,336.12z
			 M531.64,347.03c0.22,0,0.22-0.84,0-0.84C531.42,346.19,531.42,347.03,531.64,347.03z M531.64,198.58v1.26l0.66-1.26H531.64z
			 M532.29,400.28c0.44-0.42,0.44-1.68,0-2.1C531.86,397.77,531.86,400.7,532.29,400.28z"/>
		<path class="st1" d="M549.14,456.42l53.82-54.8c0.44-0.65,2.63-3.05,2.84-3.71l21.66-22.05l0.66-1.09l-64.11-65.71v-8.95
			c0,0,0.44-0.44,0.66-0.44c0.66-0.22,3.28-0.66,3.5-0.66h40.04c0.22,0,1.09,0.44,1.31,0.66c4.16,3.49,2.63,4.58,4.81,8.29
			c0.22,0.44,1.31,1.53,1.75,1.75c0.22,0.22,2.19,0.44,2.41,0.65c1.97,1.31,1.31,5.24,4.81,4.8c0.66,2.62-4.81,2.62-3.06,5.24h3.06
			l0.44,1.31c1.53-0.44,0.66-5.24,2.41-4.15c1.09,0.66,5.25,4.8,6.13,5.89c1.31,1.31,3.06,5.24,5.25,5.89l18.6,19.21h1.09
			l46.82-49.56h45.29c1.09,0,3.5,2.62,2.41,3.49l-70.02,71.61c-0.44,0.65,1.31,2.4-0.44,5.46c0,0-1.53,1.75,0,1.75
			c0-0.22,1.97-3.93,3.5-2.4l76.58,77.5c0.22,0.22,0.22,0.65,0,0.65c-0.22,0.22-1.53,0.66-1.75,0.66h-27.57
			c-1.09-0.87-2.63-0.87-3.5,0h-13.13c-1.09,0-2.84-2.84-3.06-3.71c-0.22-0.65-0.22-4.58,0-5.24c2.41-3.93,3.06-0.66,4.81-1.31
			v-2.84c-1.31-0.22-2.41-0.87-3.06-1.96c-1.53,1.09-0.66,4.37-3.06,4.37c-0.22,0-0.66-0.44-0.44-0.65l1.09-1.75
			c0-0.22-0.44-0.65-0.66-0.65c-3.94-1.09-1.09,3.05-2.84,3.49c-0.44,0-2.63-0.44-3.06-0.44c-2.19-1.09,3.5-5.46-4.81-4.37
			c-1.09,0.22-1.31,3.06-1.09,3.71c0.44,0.65,1.09-1.53,1.75-1.75l0.66,0.44c0,1.09,0.22,5.24,0.44,6.11
			c0.22,0.66,0.87,0.87,0.66,1.75h-0.66c-0.22,0-4.38-4.15-5.91-5.9c-0.87-1.09-0.87-3.05-2.41-3.05l-25.16-26.2
			c-0.87-1.31,0.22-4.15,0-5.46c-0.66-0.44-1.75,1.96-2.41,2.4c-0.66-0.87-4.38-4.58-5.25-5.46c-0.66-0.44-4.81-5.24-5.47-5.89
			c-0.22-0.22-2.63-2.84-2.84-2.4l-8.53,8.29c-0.22,0.44-2.19-0.66-2.84-0.44c-1.75,0.44,0.87,2.62,0,3.49l-29.98,32.75h-3.5
			c-0.22,0-0.66,0.44-0.66,0.66c0.22,0.44,0.87,0.87,1.09,0.66c0.87,1.31-1.31,4.58-2.41,3.49c-1.31-1.31,0.22-0.66-1.09-1.75
			c-1.53,0.22-0.22,3.93-1.09,5.46c-1.09,1.09-4.16,4.15-4.38,4.15h-49.45c0,0-0.66-0.44-0.66-0.66
			C549.14,456.86,549.14,456.42,549.14,456.42z M559.2,302.51c-0.22-0.66-1.97-0.87-2.41-1.09c-0.66-0.65,2.63-2.4,3.72-1.75
			c2.41,1.53,3.5,9.39-0.66,5.24C558.55,303.6,559.64,304.04,559.2,302.51z M565.33,305.57c0,0.44,0.44,0.44,0.44,0
			S565.33,305.13,565.33,305.57z M567.74,447.47h0.44c3.06-2.84-2.19-5.02-1.09-1.09C567.08,446.59,567.52,447.25,567.74,447.47z
			 M571.89,446.38v0.65h0.44v-0.65H571.89z M572.33,452.27c0.44,0,0.44-0.66,0-0.66C572.11,451.62,572.11,452.27,572.33,452.27z
			 M579.55,309.72c0,0.44,0.66,0.44,0.66,0S579.55,309.28,579.55,309.72z M581.96,316.27h1.75c0.44-1.31-1.09-2.84-1.75-1.09V316.27
			z M583.27,448.12l1.09-1.09c-0.66-1.31-2.41-0.44-1.75,0.44C582.62,447.69,583.05,448.12,583.27,448.12z M585.68,313.86v0.66
			C588.09,316.92,588.09,311.46,585.68,313.86z M586.77,318.01c0,0.44,0.66,0.44,0.66,0C587.43,317.79,586.77,317.79,586.77,318.01z
			 M592.68,316.92v0.66h0.66v-0.66H592.68z M593.34,449c0.22,0,0.22-0.44,0-0.44C593.12,448.56,593.12,449,593.34,449z
			 M598.15,315.17c0,0.22,0.44,0.44,0.66,0.44v-1.75h-0.66V315.17z M598.81,319.32v0.66h0.44L598.81,319.32z M599.25,322.81v0.66
			h0.66L599.25,322.81z M600.56,416.47c0,0.22,0.44,0.65,0.66,0.65v-1.75h-0.66V416.47z M644.76,400.97c0,0,1.53,0.44,2.41,0.65
			c0.66,0.22,5.47-7.64,6.56-8.29l1.31-1.31c0-0.22,0.22-1.09,0.44-1.09c0.22,0,4.16,0,3.06-1.75c-2.84-4.37-3.5,0.22-5.47-0.65
			c-0.66-0.66-4.16-3.93-4.81-4.8c0-0.22-0.88-1.53-1.09-1.75c-0.22-0.22-1.09-1.09-1.09-1.31c-1.53-5.46,2.84-5.24,5.91-2.4
			c0.87,0.87,0.87,4.37,1.09,5.46c0.22-0.22,0.66-1.09,0.66-1.31c1.53-5.24,1.75-1.96,3.5-6.55c-0.22-2.4-4.81,2.62-2.85-4.15
			c0.22-0.44,0.66-1.96,0.66-2.4h0.44c0.22,0.22,0.66,1.09,0.66,1.31c0-0.87,0.66-5.02,0.66-6.11c0.22-1.09-1.75-2.62-2.41-1.09
			c0,1.09-0.44,5.24-0.66,5.89c0,0.22-0.88,1.75-1.09,1.96c-0.22,0-0.66,0.87-0.66,1.09c-4.16-2.18,0-5.02,0.66-7.86
			c0.22-1.31-1.09-3.49-1.31-4.58c-3.06-1.09-0.66,3.06-1.09,4.15c0,0.22-1.09,0.44-1.31,0.44c-0.22,0-0.66,0.44-0.66,0.66
			c-1.75-0.87-2.19-4.15-1.75-5.9c-0.87,0-3.5-2.84-5.25-3.49c-2.85-1.53-2.19-9.39-3.06-12.01c-0.44,0.22-1.09,0.87-1.75,0.66
			c0.66-2.18-3.06-1.96-2.41-3.71c1.75-5.46-4.81-0.87-4.81-4.15v-4.8h-3.06v0.66c0,0,1.31,0.44,1.31,0.66
			c0.87,1.31-1.09,3.06-2.41,2.4v-3.06c0-0.22-0.66-2.18-0.66-2.4s3.72-2.84,1.31-3.49c-1.31,1.09-3.28,1.96-4.16,0l-1.31,1.09
			c-0.22-4.58-2.63,0.44-3.06,1.31h-0.44l-3.72-3.06h-1.09v-3.06c-0.44-0.22-1.97-0.22-2.41,0c-2.41,1.53,0.87,6.33-5.47,5.46
			c0,1.97-3.72,1.09-2.84,2.84c2.41,6.11,4.59,7.2,5.25-0.44c-0.22,3.49,2.19,3.49,4.16,5.89c-0.44,1.96-3.94-1.53-2.85,3.49
			c0.88,0.44,1.31-0.87,2.41-0.44v3.49c0,0-1.53,1.75,0,1.75h4.59c1.53,0,1.75,3.28,1.97,3.71c0.44,1.09,2.62,0.65,2.84,2.4
			c0.22,0.22,0.22,2.4,0,2.84c1.09-0.44,1.97,0.44,2.41,1.31c0.87-0.44,1.09-1.75,1.31-2.4c3.06,2.18-0.66,2.84,0,4.8
			c1.75-0.44,2.63,0.87,4.16,0.44c-0.22-1.53-0.66-4.58,1.09-5.89c0.87,1.09,0.87,2.62,0.66,3.71c5.91-1.31,0.66,4.37,2.41,7.64
			l1.75,3.06l3.72-3.71c0.22-0.44,1.75,0,1.75,0.66v3.49c0,0.44,0.88,0.44,0.66,1.31c-0.87,1.09-2.19,0.87-1.31,3.06
			c1.09,0.22,3.06-1.31,3.06-2.4v-7.86l0.44-0.66c2.19-0.87,4.16,4.15,4.38,4.8c-0.66,1.53-2.84,0.87-3.06,1.75v3.71
			c-0.22,0.87-3.72,1.09-3.06,2.4c0,0.22,1.31,0.87,1.31,1.09c0.22,0.22,0.44,2.84,0.44,3.05c0,0.22,0.44,1.53,0.66,1.75l-3.5,3.49
			v2.4c-1.09,0.44-3.06-0.66-4.16-0.44v0.44c0.66,2.18-1.31,2.4-0.66,3.06l2.41,2.4l0.66-1.09c1.09,0,0,6.33,0,6.99h0.44
			c1.97-2.62,4.16-3.49,6.13-5.89c0.22,0.44,2.41,2.4,1.75,3.49c-0.66,0.22-3.72-1.75-2.41,1.96c2.41,6.99,3.94-0.87,5.25,0
			c0,1.96-1.09,4.58-3.5,4.58V400.97z M601.65,325.87c0.22,0,0.66-0.44,0.66-0.65v-2.84c-0.87-1.09-1.31,2.18-1.09,2.84
			C601.21,325.43,601.43,325.87,601.65,325.87z M602.96,339.19c0.22,0,0.22-0.44,0-0.44C602.75,338.75,602.75,339.19,602.96,339.19z
			 M607.12,324.56c0,0-0.66-0.87-0.66-1.09v-3.06c0-0.22-0.44-0.44-0.66-0.44c-2.19,0.87-2.84,2.84-2.19,5.24
			C604.06,327.18,607.12,326.53,607.12,324.56z M604.06,436.77v-1.09h-0.44v0.44C603.62,436.33,603.84,436.77,604.06,436.77z
			 M605.37,431.31c0.44,0.22,0.88,0,1.09-0.44c-0.22-0.44-0.66-0.87-1.09-0.66V431.31z M613.03,328.27
			c0.66-0.44,1.75,0.66,1.31,1.09h-2.41L613.03,328.27z M613.03,318.01v0.66h1.31v-0.66H613.03z M613.69,393.33
			c0,0.22,0.66,0.22,0.66,0C614.34,392.89,613.69,392.89,613.69,393.33z M616.09,326.53c5.47-4.15-3.5-4.15-1.31-1.31L616.09,326.53
			z M620.25,317.14c0.22,0,0.22-0.44,0-0.44C620.03,316.7,620.03,317.14,620.25,317.14z M620.91,350.32c0-0.44,0.66-0.44,0.66,0
			C621.56,350.76,620.91,350.76,620.91,350.32z M628.56,362.33c1.31-0.22,1.31-2.84,0-3.06c-0.87,0.22-0.66,1.96-0.44,2.4
			C628.13,361.89,628.34,362.33,628.56,362.33z M630.97,340.71c0.66,1.31-0.66,3.93-1.75,1.31
			C628.78,340.71,630.31,339.19,630.97,340.71z M631.63,375.43l-0.66,0.44h0.66V375.43z M633.38,395.08
			c0.88-0.22,0.88-1.31,0.66-1.75c-0.22,0-0.66,0.22-0.66,0.44V395.08z M634.03,376.52v1.31c0.44-0.22,0.87-0.87,0.66-1.31H634.03z
			 M635.78,349.67c-0.44,0-0.44-0.66,0-0.66C636.22,349.01,636.22,349.67,635.78,349.67z M637.1,357.53c0.87-6.11,4.6,3.27,0,1.75
			V357.53z M637.53,406.43c0.44,0,0.44-0.66,0-0.66C637.1,405.77,637.1,406.43,637.53,406.43z M637.53,402.28h0.66l1.31-3.06
			c0-0.44-1.75-1.31-1.97,0V402.28z M641.26,350.98c0.22-0.66-0.22-2.4-1.31-1.96c0,0.22,0.44,1.09,0.66,1.31
			C640.6,350.54,641.04,350.98,641.26,350.98z M641.26,405.12c1.31-0.44,2.41-3.71,0.44-4.15c-1.53,0.65-1.31,2.4-1.09,3.71
			C640.6,404.68,641.04,405.12,641.26,405.12z M640.6,395.08v1.09h0.66v-1.09H640.6z M641.69,387.21c0.66,0.87,1.31,1.96,0,2.4
			V387.21z M646.51,370.84c-0.22,0-0.22-0.44,0-0.44C646.73,370.41,646.73,370.84,646.51,370.84z M647.82,389.18v1.09
			c-0.44,0.22-1.09-0.22-1.31-0.66C646.73,389.18,647.38,388.96,647.82,389.18z M650.23,392.67c0-0.44,0.44-0.44,0.44,0
			C650.66,393.11,650.23,393.11,650.23,392.67z M657.88,400.31c2.63-1.53,2.85-4.8,2.41-7.64c-1.97,0.66-0.88,3.06-1.09,4.15
			c0,0.22-1.31,2.18-1.31,2.4C657.88,399.44,657.88,400.31,657.88,400.31z M661.6,377.17c-1.75-2.4-3.5-0.22-2.41,1.09
			C660.07,379.79,662.04,378.05,661.6,377.17z M661.6,357.53v0.44h0.44L661.6,357.53z M664.45,374.12c0.87-2.4-2.63-1.96-1.75-0.66
			C663.13,374.33,663.79,374.33,664.45,374.12z M663.35,395.08h0.66v-4.15c-0.22,0-0.66,0.44-0.66,0.44V395.08z M664.01,400.97
			c0.22,0,0.22-0.66,0-0.66C663.57,400.31,663.57,400.97,664.01,400.97z M664.01,359.27v0.66h0.44v-0.66H664.01z M668.6,409.26
			c0.22,1.31,4.81,0.44,0.66-2.84c-0.44-0.44-1.75-1.31-1.75-1.31l-0.66,0.66c0.44,0.22,1.53,1.31,1.75,1.75V409.26z M674.07,395.08
			l-1.75-1.75v-1.96c0-0.22-0.44-1.09-0.66-1.09h-3.06c0,0-0.22,0.87-0.44,1.09c-0.44,1.31,1.75,2.84,1.75,3.06
			c0.22,0.44,0.66,3.27,0.66,3.49C671.01,400.31,675.17,396.6,674.07,395.08z M675.17,397.91v0.66h0.66v-0.66H675.17z
			 M692.02,420.18c0-0.22-1.31-1.09-1.31-1.31c0-0.22-0.44-1.31-0.44-1.75c-0.44-3.05,2.19-6.55-0.66-8.29
			c-0.22,0-0.66-0.44-0.66-0.66c-0.87-1.31-2.63-5.89-4.81-5.46c-3.5,1.09,1.75,6.33,3.06,7.2c0.22,0,0.66,0.44,0.66,0.65
			c0,0.22-1.09,1.09-1.31,1.09c-2.19,0.66-2.41-4.58-4.16-4.8c-0.22,0-2.84,0.66-2.84,0.66c-1.31,0.22-2.84-1.96-3.06-1.75
			c-0.66,3.28,4.16,5.89,5.25,3.06c2.19,0.44-0.22,4.8-0.44,4.8h1.75c0,0.87,1.09,4.15,1.09,4.58c0,0.22,1.31,1.09,1.31,1.31v3.05
			c0,0,0.87,0.87,1.09,1.09C689.83,425.64,693.33,423.67,692.02,420.18z M677.58,415.59c0.22,0,0.22-0.44,0-0.44
			C677.36,415.16,677.36,415.59,677.58,415.59z M679.54,404.03h1.09v-1.75c-0.44-0.22-1.09,0.22-1.09,0.44V404.03z M679.98,420.18
			h0.66c2.41-1.75,0-3.71-0.66-1.31V420.18z M681.73,340.71c0.66-1.31,1.53-3.27,3.06-3.49v-3.71c0,0-0.44-0.44-0.66-0.44
			c-1.53,1.09-3.5,3.93-2.84,5.89C681.3,339.19,681.73,340.5,681.73,340.71z M681.73,422.58v0.44h0.66v-0.44H681.73z M687.86,348.58
			v-0.66l-2.41-2.4l-1.31,1.31c0.22,0,1.09,0.87,1.31,1.09C686.33,348.58,686.98,348.79,687.86,348.58z M686.55,337.22
			c0.66-1.53,1.09-2.18,0-3.71c-0.44,0.22-0.66,0.66-0.44,1.31C686.11,335.26,686.33,336.79,686.55,337.22z M689.61,343.12
			c-0.22,0.22-0.22,1.53,0,1.75C692.24,350.32,695.52,342.03,689.61,343.12z M691.36,405.12c0.22-0.65-1.31-4.8-1.75-4.15
			c-0.22,0.44-0.22,1.96,0,2.4C689.83,403.81,690.92,404.9,691.36,405.12z M695.08,417.12c-0.87-1.53-2.84-0.22-2.41,1.09
			C693.11,420.83,695.95,419.09,695.08,417.12z M693.11,422.58h1.97c-0.22-0.44-0.87-0.87-1.31-0.65
			C693.55,421.93,693.11,422.36,693.11,422.58z M695.52,343.77c0.44-0.22,0.44-1.09,0-1.31C695.3,342.24,695.3,343.99,695.52,343.77
			z M700.99,435.03c0.44,0,0.44-0.66,0-0.66S700.55,435.03,700.99,435.03z M704.05,425.42c-0.44-1.09-3.72-0.66-3.06,0.65
			C701.64,427.38,703.39,426.29,704.05,425.42z M700.99,438.52v0.66h0.66L700.99,438.52z M706.46,429.57
			c-1.75-0.87-2.19,1.75-1.97,2.4C705.36,434.37,706.46,430.66,706.46,429.57z M705.14,436.12c-0.22,0.22-0.22,1.75,0,1.96
			c0,0,9.19-2.18,4.16-3.05v-3.71c-0.22-0.87-1.53-0.66-1.75,0c0,0.22-0.44,2.84-0.66,3.06L705.14,436.12z M708.65,421.93
			c-0.66-0.44-2.19-1.75-3.5-1.31c-0.22,0.87,0.44,1.31,0.66,1.96c0,0-0.22,1.53,0,1.75C707.99,426.51,710.61,422.8,708.65,421.93z
			 M705.14,452.93c0.87,0.22,0.87,1.09,0.66,1.75c-0.22,0-0.66-0.44-0.66-0.66V452.93z M707.55,456.42c0-0.44,2.41-5.02,3.06-2.4
			c0.22,1.53-1.75,5.9-3.06,3.06C707.55,457.07,707.55,456.64,707.55,456.42z M712.36,434.37c3.94-2.62-2.84-4.37-1.31-1.09
			L712.36,434.37z M713.02,317.58l0.44-0.66c-0.22-0.87-1.09-0.87-1.75-0.65L713.02,317.58z M715.43,316.27
			c2.63,0.87,4.6-0.66,5.91-2.84v-0.66c-1.97-1.53-4.81,0.66-5.91,2.4C715.21,315.39,715.21,316.05,715.43,316.27z M727.24,324.56
			c0,0.44,0.66,0.44,0.66,0C727.9,324.34,727.24,324.34,727.24,324.56z M729.65,454.67l0.66,0.66v-1.31L729.65,454.67z
			 M753.5,299.67h0.66l-0.66,0.44V299.67z"/>
	</g>
	<text transform="matrix(1 0 0 1 19.0013 265.0277)" class="st2 st3 st4">Powered By</text>
</g>
</svg>
